<mxfile host="app.diagrams.net" modified="2022-02-17T14:38:58.029Z" agent="5.0 (Windows NT 10.0; Win64; x64) AppleWebKit/537.36 (KHTML, like Gecko) Chrome/98.0.4758.80 Safari/537.36 Edg/98.0.1108.50" etag="8urfXt_zgE55keypb5N4" version="16.5.6" type="github" pages="3">
  <diagram id="_ePvyY0SdMCTQ3d5IvBk" name="Page-1">
    <mxGraphModel dx="2206" dy="873" grid="1" gridSize="10" guides="1" tooltips="1" connect="1" arrows="1" fold="1" page="1" pageScale="1" pageWidth="827" pageHeight="1169" math="0" shadow="0">
      <root>
        <mxCell id="0" />
        <mxCell id="1" parent="0" />
        <mxCell id="EeZjTFLyvknvzQHMmspw-1" value="" style="rounded=0;whiteSpace=wrap;html=1;fontFamily=Times New Roman;fontSize=17;fontColor=#000000;dashed=1;" vertex="1" parent="1">
          <mxGeometry x="123.5" y="380" width="50" height="280" as="geometry" />
        </mxCell>
        <mxCell id="EeZjTFLyvknvzQHMmspw-2" value="&lt;b&gt;c&lt;sub&gt;1&lt;/sub&gt;&lt;/b&gt;" style="text;html=1;align=center;verticalAlign=middle;resizable=0;points=[];autosize=1;strokeColor=none;fillColor=none;fontSize=17;fontFamily=Times New Roman;fontColor=#000000;" vertex="1" parent="1">
          <mxGeometry x="133.5" y="350" width="30" height="30" as="geometry" />
        </mxCell>
        <mxCell id="EeZjTFLyvknvzQHMmspw-3" value="" style="rounded=0;whiteSpace=wrap;html=1;fontFamily=Times New Roman;fontSize=17;fontColor=#000000;" vertex="1" parent="1">
          <mxGeometry x="193.5" y="380" width="50" height="20" as="geometry" />
        </mxCell>
        <mxCell id="EeZjTFLyvknvzQHMmspw-4" value="" style="endArrow=none;html=1;rounded=0;fontFamily=Times New Roman;fontSize=17;fontColor=#000000;entryX=0;entryY=0;entryDx=0;entryDy=0;" edge="1" parent="1">
          <mxGeometry width="50" height="50" relative="1" as="geometry">
            <mxPoint x="109.5" y="630" as="sourcePoint" />
            <mxPoint x="119.5" y="630" as="targetPoint" />
            <Array as="points">
              <mxPoint x="99.5" y="630" />
              <mxPoint x="109.5" y="630" />
            </Array>
          </mxGeometry>
        </mxCell>
        <mxCell id="EeZjTFLyvknvzQHMmspw-5" value="&lt;b&gt;&lt;font style=&quot;font-size: 11px&quot;&gt;0&lt;/font&gt;&lt;/b&gt;" style="text;html=1;align=center;verticalAlign=middle;resizable=0;points=[];autosize=1;strokeColor=none;fillColor=none;fontSize=17;fontFamily=Times New Roman;fontColor=#000000;" vertex="1" parent="1">
          <mxGeometry x="81.5" y="364" width="20" height="30" as="geometry" />
        </mxCell>
        <mxCell id="EeZjTFLyvknvzQHMmspw-6" value="&lt;b&gt;&lt;font style=&quot;font-size: 11px&quot;&gt;5&lt;/font&gt;&lt;/b&gt;" style="text;html=1;align=center;verticalAlign=middle;resizable=0;points=[];autosize=1;strokeColor=none;fillColor=none;fontSize=17;fontFamily=Times New Roman;fontColor=#000000;" vertex="1" parent="1">
          <mxGeometry x="81.5" y="414" width="20" height="30" as="geometry" />
        </mxCell>
        <mxCell id="EeZjTFLyvknvzQHMmspw-7" value="&lt;b&gt;&lt;font style=&quot;font-size: 11px&quot;&gt;10&lt;/font&gt;&lt;/b&gt;" style="text;html=1;align=center;verticalAlign=middle;resizable=0;points=[];autosize=1;strokeColor=none;fillColor=none;fontSize=17;fontFamily=Times New Roman;fontColor=#000000;" vertex="1" parent="1">
          <mxGeometry x="76.5" y="463" width="30" height="30" as="geometry" />
        </mxCell>
        <mxCell id="EeZjTFLyvknvzQHMmspw-8" value="&lt;b&gt;&lt;font style=&quot;font-size: 11px&quot;&gt;15&lt;/font&gt;&lt;/b&gt;" style="text;html=1;align=center;verticalAlign=middle;resizable=0;points=[];autosize=1;strokeColor=none;fillColor=none;fontSize=17;fontFamily=Times New Roman;fontColor=#000000;" vertex="1" parent="1">
          <mxGeometry x="76.5" y="513" width="30" height="30" as="geometry" />
        </mxCell>
        <mxCell id="EeZjTFLyvknvzQHMmspw-9" value="&lt;b&gt;&lt;font style=&quot;font-size: 11px&quot;&gt;20&lt;/font&gt;&lt;/b&gt;" style="text;html=1;align=center;verticalAlign=middle;resizable=0;points=[];autosize=1;strokeColor=none;fillColor=none;fontSize=17;fontFamily=Times New Roman;fontColor=#000000;" vertex="1" parent="1">
          <mxGeometry x="76.5" y="563" width="30" height="30" as="geometry" />
        </mxCell>
        <mxCell id="EeZjTFLyvknvzQHMmspw-10" value="&lt;b&gt;&lt;font style=&quot;font-size: 11px&quot;&gt;25&lt;/font&gt;&lt;/b&gt;" style="text;html=1;align=center;verticalAlign=middle;resizable=0;points=[];autosize=1;strokeColor=none;fillColor=none;fontSize=17;fontFamily=Times New Roman;fontColor=#000000;" vertex="1" parent="1">
          <mxGeometry x="76.5" y="614" width="30" height="30" as="geometry" />
        </mxCell>
        <mxCell id="EeZjTFLyvknvzQHMmspw-11" value="" style="endArrow=none;html=1;rounded=0;fontFamily=Times New Roman;fontSize=11;fontColor=#000000;" edge="1" parent="1">
          <mxGeometry width="50" height="50" relative="1" as="geometry">
            <mxPoint x="119.5" y="620" as="sourcePoint" />
            <mxPoint x="109.5" y="620" as="targetPoint" />
          </mxGeometry>
        </mxCell>
        <mxCell id="EeZjTFLyvknvzQHMmspw-12" value="" style="endArrow=none;html=1;rounded=0;fontFamily=Times New Roman;fontSize=11;fontColor=#000000;exitX=-0.01;exitY=0.857;exitDx=0;exitDy=0;exitPerimeter=0;" edge="1" parent="1">
          <mxGeometry width="50" height="50" relative="1" as="geometry">
            <mxPoint x="119.5" y="610" as="sourcePoint" />
            <mxPoint x="109.5" y="610" as="targetPoint" />
          </mxGeometry>
        </mxCell>
        <mxCell id="EeZjTFLyvknvzQHMmspw-13" value="" style="endArrow=none;html=1;rounded=0;fontFamily=Times New Roman;fontSize=11;fontColor=#000000;exitX=-0.01;exitY=0.857;exitDx=0;exitDy=0;exitPerimeter=0;" edge="1" parent="1">
          <mxGeometry width="50" height="50" relative="1" as="geometry">
            <mxPoint x="119.5" y="600" as="sourcePoint" />
            <mxPoint x="109.5" y="600" as="targetPoint" />
          </mxGeometry>
        </mxCell>
        <mxCell id="EeZjTFLyvknvzQHMmspw-14" value="" style="endArrow=none;html=1;rounded=0;fontFamily=Times New Roman;fontSize=11;fontColor=#000000;exitX=-0.01;exitY=0.857;exitDx=0;exitDy=0;exitPerimeter=0;" edge="1" parent="1">
          <mxGeometry width="50" height="50" relative="1" as="geometry">
            <mxPoint x="119.5" y="590" as="sourcePoint" />
            <mxPoint x="109.5" y="590" as="targetPoint" />
          </mxGeometry>
        </mxCell>
        <mxCell id="EeZjTFLyvknvzQHMmspw-15" value="" style="endArrow=none;html=1;rounded=0;fontFamily=Times New Roman;fontSize=17;fontColor=#000000;entryX=0;entryY=0;entryDx=0;entryDy=0;" edge="1" parent="1">
          <mxGeometry width="50" height="50" relative="1" as="geometry">
            <mxPoint x="109.5" y="580" as="sourcePoint" />
            <mxPoint x="119.5" y="580" as="targetPoint" />
            <Array as="points">
              <mxPoint x="99.5" y="580" />
              <mxPoint x="109.5" y="580" />
            </Array>
          </mxGeometry>
        </mxCell>
        <mxCell id="EeZjTFLyvknvzQHMmspw-16" value="" style="endArrow=none;html=1;rounded=0;fontFamily=Times New Roman;fontSize=11;fontColor=#000000;exitX=-0.01;exitY=0.857;exitDx=0;exitDy=0;exitPerimeter=0;" edge="1" parent="1">
          <mxGeometry width="50" height="50" relative="1" as="geometry">
            <mxPoint x="119" y="569.96" as="sourcePoint" />
            <mxPoint x="109.5" y="570" as="targetPoint" />
          </mxGeometry>
        </mxCell>
        <mxCell id="EeZjTFLyvknvzQHMmspw-17" value="" style="endArrow=none;html=1;rounded=0;fontFamily=Times New Roman;fontSize=11;fontColor=#000000;exitX=-0.01;exitY=0.857;exitDx=0;exitDy=0;exitPerimeter=0;" edge="1" parent="1">
          <mxGeometry width="50" height="50" relative="1" as="geometry">
            <mxPoint x="119.5" y="560" as="sourcePoint" />
            <mxPoint x="109.5" y="560" as="targetPoint" />
          </mxGeometry>
        </mxCell>
        <mxCell id="EeZjTFLyvknvzQHMmspw-18" value="" style="endArrow=none;html=1;rounded=0;fontFamily=Times New Roman;fontSize=11;fontColor=#000000;exitX=-0.01;exitY=0.857;exitDx=0;exitDy=0;exitPerimeter=0;" edge="1" parent="1">
          <mxGeometry width="50" height="50" relative="1" as="geometry">
            <mxPoint x="119.5" y="550" as="sourcePoint" />
            <mxPoint x="109.5" y="550" as="targetPoint" />
          </mxGeometry>
        </mxCell>
        <mxCell id="EeZjTFLyvknvzQHMmspw-19" value="" style="endArrow=none;html=1;rounded=0;fontFamily=Times New Roman;fontSize=11;fontColor=#000000;exitX=-0.01;exitY=0.857;exitDx=0;exitDy=0;exitPerimeter=0;" edge="1" parent="1">
          <mxGeometry width="50" height="50" relative="1" as="geometry">
            <mxPoint x="119.5" y="540" as="sourcePoint" />
            <mxPoint x="109.5" y="540" as="targetPoint" />
          </mxGeometry>
        </mxCell>
        <mxCell id="EeZjTFLyvknvzQHMmspw-20" value="" style="endArrow=none;html=1;rounded=0;fontFamily=Times New Roman;fontSize=17;fontColor=#000000;entryX=0;entryY=0;entryDx=0;entryDy=0;" edge="1" parent="1">
          <mxGeometry width="50" height="50" relative="1" as="geometry">
            <mxPoint x="109.5" y="530" as="sourcePoint" />
            <mxPoint x="119.5" y="530" as="targetPoint" />
            <Array as="points">
              <mxPoint x="99.5" y="530" />
              <mxPoint x="109.5" y="530" />
            </Array>
          </mxGeometry>
        </mxCell>
        <mxCell id="EeZjTFLyvknvzQHMmspw-21" value="" style="endArrow=none;html=1;rounded=0;fontFamily=Times New Roman;fontSize=11;fontColor=#000000;exitX=-0.01;exitY=0.857;exitDx=0;exitDy=0;exitPerimeter=0;" edge="1" parent="1">
          <mxGeometry width="50" height="50" relative="1" as="geometry">
            <mxPoint x="119" y="519.96" as="sourcePoint" />
            <mxPoint x="109.5" y="520" as="targetPoint" />
          </mxGeometry>
        </mxCell>
        <mxCell id="EeZjTFLyvknvzQHMmspw-22" value="" style="endArrow=none;html=1;rounded=0;fontFamily=Times New Roman;fontSize=11;fontColor=#000000;exitX=-0.01;exitY=0.857;exitDx=0;exitDy=0;exitPerimeter=0;" edge="1" parent="1">
          <mxGeometry width="50" height="50" relative="1" as="geometry">
            <mxPoint x="119.5" y="510" as="sourcePoint" />
            <mxPoint x="109.5" y="510" as="targetPoint" />
          </mxGeometry>
        </mxCell>
        <mxCell id="EeZjTFLyvknvzQHMmspw-23" value="" style="endArrow=none;html=1;rounded=0;fontFamily=Times New Roman;fontSize=11;fontColor=#000000;exitX=-0.01;exitY=0.857;exitDx=0;exitDy=0;exitPerimeter=0;" edge="1" parent="1">
          <mxGeometry width="50" height="50" relative="1" as="geometry">
            <mxPoint x="119.5" y="500" as="sourcePoint" />
            <mxPoint x="109.5" y="500" as="targetPoint" />
          </mxGeometry>
        </mxCell>
        <mxCell id="EeZjTFLyvknvzQHMmspw-24" value="" style="endArrow=none;html=1;rounded=0;fontFamily=Times New Roman;fontSize=11;fontColor=#000000;exitX=-0.01;exitY=0.857;exitDx=0;exitDy=0;exitPerimeter=0;" edge="1" parent="1">
          <mxGeometry width="50" height="50" relative="1" as="geometry">
            <mxPoint x="119.5" y="490" as="sourcePoint" />
            <mxPoint x="109.5" y="490" as="targetPoint" />
            <Array as="points">
              <mxPoint x="119.5" y="490" />
            </Array>
          </mxGeometry>
        </mxCell>
        <mxCell id="EeZjTFLyvknvzQHMmspw-25" value="" style="endArrow=none;html=1;rounded=0;fontFamily=Times New Roman;fontSize=17;fontColor=#000000;entryX=0;entryY=0;entryDx=0;entryDy=0;" edge="1" parent="1">
          <mxGeometry width="50" height="50" relative="1" as="geometry">
            <mxPoint x="109.5" y="580" as="sourcePoint" />
            <mxPoint x="119.5" y="580" as="targetPoint" />
            <Array as="points">
              <mxPoint x="99.5" y="580" />
              <mxPoint x="109.5" y="580" />
            </Array>
          </mxGeometry>
        </mxCell>
        <mxCell id="EeZjTFLyvknvzQHMmspw-26" value="" style="endArrow=none;html=1;rounded=0;fontFamily=Times New Roman;fontSize=11;fontColor=#000000;exitX=-0.01;exitY=0.857;exitDx=0;exitDy=0;exitPerimeter=0;" edge="1" parent="1">
          <mxGeometry width="50" height="50" relative="1" as="geometry">
            <mxPoint x="119" y="569.96" as="sourcePoint" />
            <mxPoint x="109.5" y="570" as="targetPoint" />
          </mxGeometry>
        </mxCell>
        <mxCell id="EeZjTFLyvknvzQHMmspw-27" value="" style="endArrow=none;html=1;rounded=0;fontFamily=Times New Roman;fontSize=11;fontColor=#000000;exitX=-0.01;exitY=0.857;exitDx=0;exitDy=0;exitPerimeter=0;" edge="1" parent="1">
          <mxGeometry width="50" height="50" relative="1" as="geometry">
            <mxPoint x="119.5" y="560" as="sourcePoint" />
            <mxPoint x="109.5" y="560" as="targetPoint" />
          </mxGeometry>
        </mxCell>
        <mxCell id="EeZjTFLyvknvzQHMmspw-28" value="" style="endArrow=none;html=1;rounded=0;fontFamily=Times New Roman;fontSize=11;fontColor=#000000;exitX=-0.01;exitY=0.857;exitDx=0;exitDy=0;exitPerimeter=0;" edge="1" parent="1">
          <mxGeometry width="50" height="50" relative="1" as="geometry">
            <mxPoint x="119.5" y="550" as="sourcePoint" />
            <mxPoint x="109.5" y="550" as="targetPoint" />
          </mxGeometry>
        </mxCell>
        <mxCell id="EeZjTFLyvknvzQHMmspw-29" value="" style="endArrow=none;html=1;rounded=0;fontFamily=Times New Roman;fontSize=17;fontColor=#000000;entryX=0;entryY=0;entryDx=0;entryDy=0;" edge="1" parent="1">
          <mxGeometry width="50" height="50" relative="1" as="geometry">
            <mxPoint x="109.5" y="479.7800000000002" as="sourcePoint" />
            <mxPoint x="119.5" y="479.7800000000002" as="targetPoint" />
            <Array as="points">
              <mxPoint x="99.5" y="479.78" />
              <mxPoint x="109.5" y="479.78" />
            </Array>
          </mxGeometry>
        </mxCell>
        <mxCell id="EeZjTFLyvknvzQHMmspw-30" value="" style="endArrow=none;html=1;rounded=0;fontFamily=Times New Roman;fontSize=11;fontColor=#000000;exitX=-0.01;exitY=0.857;exitDx=0;exitDy=0;exitPerimeter=0;" edge="1" parent="1">
          <mxGeometry width="50" height="50" relative="1" as="geometry">
            <mxPoint x="119" y="469.74" as="sourcePoint" />
            <mxPoint x="109.5" y="469.7800000000002" as="targetPoint" />
          </mxGeometry>
        </mxCell>
        <mxCell id="EeZjTFLyvknvzQHMmspw-31" value="" style="endArrow=none;html=1;rounded=0;fontFamily=Times New Roman;fontSize=11;fontColor=#000000;exitX=-0.01;exitY=0.857;exitDx=0;exitDy=0;exitPerimeter=0;" edge="1" parent="1">
          <mxGeometry width="50" height="50" relative="1" as="geometry">
            <mxPoint x="119.5" y="459.77999999999975" as="sourcePoint" />
            <mxPoint x="109.5" y="459.7800000000002" as="targetPoint" />
          </mxGeometry>
        </mxCell>
        <mxCell id="EeZjTFLyvknvzQHMmspw-32" value="" style="endArrow=none;html=1;rounded=0;fontFamily=Times New Roman;fontSize=11;fontColor=#000000;exitX=-0.01;exitY=0.857;exitDx=0;exitDy=0;exitPerimeter=0;" edge="1" parent="1">
          <mxGeometry width="50" height="50" relative="1" as="geometry">
            <mxPoint x="119.5" y="449.77999999999975" as="sourcePoint" />
            <mxPoint x="109.5" y="449.7800000000002" as="targetPoint" />
          </mxGeometry>
        </mxCell>
        <mxCell id="EeZjTFLyvknvzQHMmspw-33" value="" style="endArrow=none;html=1;rounded=0;fontFamily=Times New Roman;fontSize=11;fontColor=#000000;exitX=-0.01;exitY=0.857;exitDx=0;exitDy=0;exitPerimeter=0;" edge="1" parent="1">
          <mxGeometry width="50" height="50" relative="1" as="geometry">
            <mxPoint x="119.5" y="439.77999999999975" as="sourcePoint" />
            <mxPoint x="109.5" y="439.7800000000002" as="targetPoint" />
          </mxGeometry>
        </mxCell>
        <mxCell id="EeZjTFLyvknvzQHMmspw-34" value="" style="endArrow=none;html=1;rounded=0;fontFamily=Times New Roman;fontSize=11;fontColor=#000000;exitX=-0.01;exitY=0.857;exitDx=0;exitDy=0;exitPerimeter=0;" edge="1" parent="1">
          <mxGeometry width="50" height="50" relative="1" as="geometry">
            <mxPoint x="119.5" y="389.77999999999986" as="sourcePoint" />
            <mxPoint x="109.5" y="389.7800000000003" as="targetPoint" />
          </mxGeometry>
        </mxCell>
        <mxCell id="EeZjTFLyvknvzQHMmspw-35" value="" style="endArrow=none;html=1;rounded=0;fontFamily=Times New Roman;fontSize=17;fontColor=#000000;entryX=0;entryY=0;entryDx=0;entryDy=0;" edge="1" parent="1">
          <mxGeometry width="50" height="50" relative="1" as="geometry">
            <mxPoint x="109.5" y="429.7800000000002" as="sourcePoint" />
            <mxPoint x="119.5" y="429.7800000000002" as="targetPoint" />
            <Array as="points">
              <mxPoint x="99.5" y="429.78" />
              <mxPoint x="109.5" y="429.78" />
            </Array>
          </mxGeometry>
        </mxCell>
        <mxCell id="EeZjTFLyvknvzQHMmspw-36" value="" style="endArrow=none;html=1;rounded=0;fontFamily=Times New Roman;fontSize=11;fontColor=#000000;startArrow=none;" edge="1" parent="1">
          <mxGeometry width="50" height="50" relative="1" as="geometry">
            <mxPoint x="119.5" y="419.9999999999999" as="sourcePoint" />
            <mxPoint x="109.5" y="419.9999999999999" as="targetPoint" />
          </mxGeometry>
        </mxCell>
        <mxCell id="EeZjTFLyvknvzQHMmspw-37" value="" style="endArrow=none;html=1;rounded=0;fontFamily=Times New Roman;fontSize=11;fontColor=#000000;exitX=-0.01;exitY=0.857;exitDx=0;exitDy=0;exitPerimeter=0;" edge="1" parent="1">
          <mxGeometry width="50" height="50" relative="1" as="geometry">
            <mxPoint x="119.5" y="409.77999999999986" as="sourcePoint" />
            <mxPoint x="109.5" y="409.7800000000003" as="targetPoint" />
          </mxGeometry>
        </mxCell>
        <mxCell id="EeZjTFLyvknvzQHMmspw-38" value="" style="endArrow=none;html=1;rounded=0;fontFamily=Times New Roman;fontSize=11;fontColor=#000000;exitX=-0.01;exitY=0.857;exitDx=0;exitDy=0;exitPerimeter=0;" edge="1" parent="1">
          <mxGeometry width="50" height="50" relative="1" as="geometry">
            <mxPoint x="119.5" y="399.77999999999986" as="sourcePoint" />
            <mxPoint x="109.5" y="399.7800000000003" as="targetPoint" />
          </mxGeometry>
        </mxCell>
        <mxCell id="EeZjTFLyvknvzQHMmspw-39" value="" style="endArrow=none;html=1;rounded=0;fontFamily=Times New Roman;fontSize=17;fontColor=#000000;entryX=0;entryY=0;entryDx=0;entryDy=0;" edge="1" parent="1">
          <mxGeometry width="50" height="50" relative="1" as="geometry">
            <mxPoint x="109.5" y="379.9999999999999" as="sourcePoint" />
            <mxPoint x="119.5" y="379.9999999999999" as="targetPoint" />
            <Array as="points">
              <mxPoint x="99.5" y="380" />
              <mxPoint x="109.5" y="380" />
            </Array>
          </mxGeometry>
        </mxCell>
        <mxCell id="EeZjTFLyvknvzQHMmspw-40" value="" style="rounded=0;whiteSpace=wrap;html=1;fontFamily=Times New Roman;fontSize=17;fontColor=#000000;dashed=1;" vertex="1" parent="1">
          <mxGeometry x="193.5" y="380" width="50" height="280" as="geometry" />
        </mxCell>
        <mxCell id="EeZjTFLyvknvzQHMmspw-41" value="&lt;b&gt;c&lt;sub&gt;2&lt;/sub&gt;&lt;/b&gt;" style="text;html=1;align=center;verticalAlign=middle;resizable=0;points=[];autosize=1;strokeColor=none;fillColor=none;fontSize=17;fontFamily=Times New Roman;fontColor=#000000;" vertex="1" parent="1">
          <mxGeometry x="203.5" y="350" width="30" height="30" as="geometry" />
        </mxCell>
        <mxCell id="EeZjTFLyvknvzQHMmspw-42" value="" style="rounded=0;whiteSpace=wrap;html=1;fontFamily=Times New Roman;fontSize=17;fontColor=#000000;dashed=1;" vertex="1" parent="1">
          <mxGeometry x="263.5" y="380" width="50" height="280" as="geometry" />
        </mxCell>
        <mxCell id="EeZjTFLyvknvzQHMmspw-43" value="&lt;b&gt;c&lt;sub&gt;3&lt;/sub&gt;&lt;/b&gt;" style="text;html=1;align=center;verticalAlign=middle;resizable=0;points=[];autosize=1;strokeColor=none;fillColor=none;fontSize=17;fontFamily=Times New Roman;fontColor=#000000;" vertex="1" parent="1">
          <mxGeometry x="273.5" y="350" width="30" height="30" as="geometry" />
        </mxCell>
        <mxCell id="EeZjTFLyvknvzQHMmspw-44" value="&lt;b style=&quot;font-size: 14px&quot;&gt;n&lt;sub&gt;2&lt;/sub&gt;&lt;/b&gt;" style="rounded=0;whiteSpace=wrap;html=1;fontFamily=Times New Roman;fontSize=11;fontColor=#000000;" vertex="1" parent="1">
          <mxGeometry x="193.5" y="470" width="50" height="100" as="geometry" />
        </mxCell>
        <mxCell id="EeZjTFLyvknvzQHMmspw-45" value="&lt;b style=&quot;font-size: 14px&quot;&gt;n&lt;sub&gt;1&lt;/sub&gt;&lt;/b&gt;" style="rounded=0;whiteSpace=wrap;html=1;fontFamily=Times New Roman;fontSize=11;fontColor=#000000;" vertex="1" parent="1">
          <mxGeometry x="193.5" y="380" width="50" height="20" as="geometry" />
        </mxCell>
        <mxCell id="EeZjTFLyvknvzQHMmspw-46" value="&lt;b style=&quot;font-size: 14px&quot;&gt;n&lt;sub&gt;3&lt;/sub&gt;&lt;/b&gt;" style="rounded=0;whiteSpace=wrap;html=1;fontFamily=Times New Roman;fontSize=11;fontColor=#000000;" vertex="1" parent="1">
          <mxGeometry x="263.5" y="410" width="50" height="20" as="geometry" />
        </mxCell>
        <mxCell id="EeZjTFLyvknvzQHMmspw-47" value="&lt;b style=&quot;font-size: 14px&quot;&gt;n&lt;sub&gt;5&lt;/sub&gt;&lt;/b&gt;" style="rounded=0;whiteSpace=wrap;html=1;fontFamily=Times New Roman;fontSize=11;fontColor=#000000;" vertex="1" parent="1">
          <mxGeometry x="193.5" y="450" width="50" height="20" as="geometry" />
        </mxCell>
        <mxCell id="EeZjTFLyvknvzQHMmspw-48" value="&lt;b style=&quot;font-size: 14px&quot;&gt;n&lt;sub&gt;4&lt;/sub&gt;&lt;/b&gt;" style="rounded=0;whiteSpace=wrap;html=1;fontFamily=Times New Roman;fontSize=11;fontColor=#000000;" vertex="1" parent="1">
          <mxGeometry x="193.5" y="570" width="50" height="30" as="geometry" />
        </mxCell>
        <mxCell id="EeZjTFLyvknvzQHMmspw-49" value="&lt;b style=&quot;font-size: 14px&quot;&gt;n&lt;sub&gt;6&lt;/sub&gt;&lt;/b&gt;" style="rounded=0;whiteSpace=wrap;html=1;fontFamily=Times New Roman;fontSize=11;fontColor=#000000;" vertex="1" parent="1">
          <mxGeometry x="263.5" y="620" width="50" height="20" as="geometry" />
        </mxCell>
        <mxCell id="EeZjTFLyvknvzQHMmspw-50" value="" style="endArrow=none;html=1;rounded=0;fontFamily=Times New Roman;fontSize=14;fontColor=#000000;exitX=-0.003;exitY=0.989;exitDx=0;exitDy=0;exitPerimeter=0;" edge="1" parent="1">
          <mxGeometry width="50" height="50" relative="1" as="geometry">
            <mxPoint x="119.33999999999992" y="659.9200000000001" as="sourcePoint" />
            <mxPoint x="119.48999999999978" y="379.9999999999999" as="targetPoint" />
          </mxGeometry>
        </mxCell>
        <mxCell id="EeZjTFLyvknvzQHMmspw-51" value="" style="endArrow=classicThin;html=1;rounded=0;fontFamily=Times New Roman;fontSize=14;fontColor=#000000;exitX=0.75;exitY=1;exitDx=0;exitDy=0;entryX=0.5;entryY=0;entryDx=0;entryDy=0;endFill=1;" edge="1" parent="1" source="EeZjTFLyvknvzQHMmspw-45" target="EeZjTFLyvknvzQHMmspw-46">
          <mxGeometry width="50" height="50" relative="1" as="geometry">
            <mxPoint x="216" y="410" as="sourcePoint" />
            <mxPoint x="158.5" y="430" as="targetPoint" />
          </mxGeometry>
        </mxCell>
        <mxCell id="EeZjTFLyvknvzQHMmspw-52" value="" style="endArrow=classicThin;html=1;rounded=0;fontFamily=Times New Roman;fontSize=14;fontColor=#000000;exitX=0.25;exitY=1;exitDx=0;exitDy=0;entryX=0.5;entryY=0;entryDx=0;entryDy=0;endFill=1;" edge="1" parent="1" source="EeZjTFLyvknvzQHMmspw-46" target="EeZjTFLyvknvzQHMmspw-47">
          <mxGeometry width="50" height="50" relative="1" as="geometry">
            <mxPoint x="226" y="420" as="sourcePoint" />
            <mxPoint x="168.5" y="440" as="targetPoint" />
          </mxGeometry>
        </mxCell>
        <mxCell id="EeZjTFLyvknvzQHMmspw-53" value="" style="endArrow=classicThin;html=1;rounded=0;fontFamily=Times New Roman;fontSize=14;fontColor=#000000;exitX=0.75;exitY=1;exitDx=0;exitDy=0;entryX=0.5;entryY=0;entryDx=0;entryDy=0;endFill=1;" edge="1" parent="1" source="EeZjTFLyvknvzQHMmspw-48" target="EeZjTFLyvknvzQHMmspw-49">
          <mxGeometry width="50" height="50" relative="1" as="geometry">
            <mxPoint x="246" y="490" as="sourcePoint" />
            <mxPoint x="188.5" y="510" as="targetPoint" />
          </mxGeometry>
        </mxCell>
        <mxCell id="EeZjTFLyvknvzQHMmspw-54" value="" style="endArrow=classicThin;html=1;rounded=0;fontFamily=Times New Roman;fontSize=14;fontColor=#000000;exitX=0.75;exitY=1;exitDx=0;exitDy=0;entryX=0.5;entryY=0;entryDx=0;entryDy=0;endFill=1;" edge="1" parent="1" source="EeZjTFLyvknvzQHMmspw-47" target="EeZjTFLyvknvzQHMmspw-49">
          <mxGeometry width="50" height="50" relative="1" as="geometry">
            <mxPoint x="256" y="450" as="sourcePoint" />
            <mxPoint x="198.5" y="470" as="targetPoint" />
          </mxGeometry>
        </mxCell>
        <mxCell id="EeZjTFLyvknvzQHMmspw-55" value="" style="rounded=0;whiteSpace=wrap;html=1;fontFamily=Times New Roman;fontSize=17;fontColor=#000000;dashed=1;" vertex="1" parent="1">
          <mxGeometry x="487" y="380" width="50" height="280" as="geometry" />
        </mxCell>
        <mxCell id="EeZjTFLyvknvzQHMmspw-56" value="&lt;b&gt;c&lt;sub&gt;1&lt;/sub&gt;&lt;/b&gt;" style="text;html=1;align=center;verticalAlign=middle;resizable=0;points=[];autosize=1;strokeColor=none;fillColor=none;fontSize=17;fontFamily=Times New Roman;fontColor=#000000;" vertex="1" parent="1">
          <mxGeometry x="497" y="350" width="30" height="30" as="geometry" />
        </mxCell>
        <mxCell id="EeZjTFLyvknvzQHMmspw-57" value="" style="rounded=0;whiteSpace=wrap;html=1;fontFamily=Times New Roman;fontSize=17;fontColor=#000000;" vertex="1" parent="1">
          <mxGeometry x="557" y="380" width="50" height="20" as="geometry" />
        </mxCell>
        <mxCell id="EeZjTFLyvknvzQHMmspw-58" value="" style="endArrow=none;html=1;rounded=0;fontFamily=Times New Roman;fontSize=17;fontColor=#000000;entryX=0;entryY=0;entryDx=0;entryDy=0;" edge="1" parent="1">
          <mxGeometry width="50" height="50" relative="1" as="geometry">
            <mxPoint x="472.9999999999998" y="630" as="sourcePoint" />
            <mxPoint x="482.9999999999998" y="630" as="targetPoint" />
            <Array as="points">
              <mxPoint x="463" y="630" />
              <mxPoint x="473" y="630" />
            </Array>
          </mxGeometry>
        </mxCell>
        <mxCell id="EeZjTFLyvknvzQHMmspw-59" value="&lt;b&gt;&lt;font style=&quot;font-size: 11px&quot;&gt;0&lt;/font&gt;&lt;/b&gt;" style="text;html=1;align=center;verticalAlign=middle;resizable=0;points=[];autosize=1;strokeColor=none;fillColor=none;fontSize=17;fontFamily=Times New Roman;fontColor=#000000;" vertex="1" parent="1">
          <mxGeometry x="445" y="364" width="20" height="30" as="geometry" />
        </mxCell>
        <mxCell id="EeZjTFLyvknvzQHMmspw-60" value="&lt;b&gt;&lt;font style=&quot;font-size: 11px&quot;&gt;5&lt;/font&gt;&lt;/b&gt;" style="text;html=1;align=center;verticalAlign=middle;resizable=0;points=[];autosize=1;strokeColor=none;fillColor=none;fontSize=17;fontFamily=Times New Roman;fontColor=#000000;" vertex="1" parent="1">
          <mxGeometry x="445" y="414" width="20" height="30" as="geometry" />
        </mxCell>
        <mxCell id="EeZjTFLyvknvzQHMmspw-61" value="&lt;b&gt;&lt;font style=&quot;font-size: 11px&quot;&gt;10&lt;/font&gt;&lt;/b&gt;" style="text;html=1;align=center;verticalAlign=middle;resizable=0;points=[];autosize=1;strokeColor=none;fillColor=none;fontSize=17;fontFamily=Times New Roman;fontColor=#000000;" vertex="1" parent="1">
          <mxGeometry x="440" y="463" width="30" height="30" as="geometry" />
        </mxCell>
        <mxCell id="EeZjTFLyvknvzQHMmspw-62" value="&lt;b&gt;&lt;font style=&quot;font-size: 11px&quot;&gt;15&lt;/font&gt;&lt;/b&gt;" style="text;html=1;align=center;verticalAlign=middle;resizable=0;points=[];autosize=1;strokeColor=none;fillColor=none;fontSize=17;fontFamily=Times New Roman;fontColor=#000000;" vertex="1" parent="1">
          <mxGeometry x="440" y="513" width="30" height="30" as="geometry" />
        </mxCell>
        <mxCell id="EeZjTFLyvknvzQHMmspw-63" value="&lt;b&gt;&lt;font style=&quot;font-size: 11px&quot;&gt;20&lt;/font&gt;&lt;/b&gt;" style="text;html=1;align=center;verticalAlign=middle;resizable=0;points=[];autosize=1;strokeColor=none;fillColor=none;fontSize=17;fontFamily=Times New Roman;fontColor=#000000;" vertex="1" parent="1">
          <mxGeometry x="440" y="563" width="30" height="30" as="geometry" />
        </mxCell>
        <mxCell id="EeZjTFLyvknvzQHMmspw-64" value="&lt;b&gt;&lt;font style=&quot;font-size: 11px&quot;&gt;25&lt;/font&gt;&lt;/b&gt;" style="text;html=1;align=center;verticalAlign=middle;resizable=0;points=[];autosize=1;strokeColor=none;fillColor=none;fontSize=17;fontFamily=Times New Roman;fontColor=#000000;" vertex="1" parent="1">
          <mxGeometry x="440" y="614" width="30" height="30" as="geometry" />
        </mxCell>
        <mxCell id="EeZjTFLyvknvzQHMmspw-65" value="" style="endArrow=none;html=1;rounded=0;fontFamily=Times New Roman;fontSize=11;fontColor=#000000;" edge="1" parent="1">
          <mxGeometry width="50" height="50" relative="1" as="geometry">
            <mxPoint x="482.9999999999998" y="620" as="sourcePoint" />
            <mxPoint x="472.9999999999998" y="620" as="targetPoint" />
          </mxGeometry>
        </mxCell>
        <mxCell id="EeZjTFLyvknvzQHMmspw-66" value="" style="endArrow=none;html=1;rounded=0;fontFamily=Times New Roman;fontSize=11;fontColor=#000000;exitX=-0.01;exitY=0.857;exitDx=0;exitDy=0;exitPerimeter=0;" edge="1" parent="1">
          <mxGeometry width="50" height="50" relative="1" as="geometry">
            <mxPoint x="482.9999999999998" y="610" as="sourcePoint" />
            <mxPoint x="472.9999999999998" y="610" as="targetPoint" />
          </mxGeometry>
        </mxCell>
        <mxCell id="EeZjTFLyvknvzQHMmspw-67" value="" style="endArrow=none;html=1;rounded=0;fontFamily=Times New Roman;fontSize=11;fontColor=#000000;exitX=-0.01;exitY=0.857;exitDx=0;exitDy=0;exitPerimeter=0;" edge="1" parent="1">
          <mxGeometry width="50" height="50" relative="1" as="geometry">
            <mxPoint x="482.9999999999998" y="600" as="sourcePoint" />
            <mxPoint x="472.9999999999998" y="600" as="targetPoint" />
          </mxGeometry>
        </mxCell>
        <mxCell id="EeZjTFLyvknvzQHMmspw-68" value="" style="endArrow=none;html=1;rounded=0;fontFamily=Times New Roman;fontSize=11;fontColor=#000000;exitX=-0.01;exitY=0.857;exitDx=0;exitDy=0;exitPerimeter=0;" edge="1" parent="1">
          <mxGeometry width="50" height="50" relative="1" as="geometry">
            <mxPoint x="482.9999999999998" y="590" as="sourcePoint" />
            <mxPoint x="472.9999999999998" y="590" as="targetPoint" />
          </mxGeometry>
        </mxCell>
        <mxCell id="EeZjTFLyvknvzQHMmspw-69" value="" style="endArrow=none;html=1;rounded=0;fontFamily=Times New Roman;fontSize=17;fontColor=#000000;entryX=0;entryY=0;entryDx=0;entryDy=0;" edge="1" parent="1">
          <mxGeometry width="50" height="50" relative="1" as="geometry">
            <mxPoint x="472.9999999999998" y="580" as="sourcePoint" />
            <mxPoint x="482.9999999999998" y="580" as="targetPoint" />
            <Array as="points">
              <mxPoint x="463" y="580" />
              <mxPoint x="473" y="580" />
            </Array>
          </mxGeometry>
        </mxCell>
        <mxCell id="EeZjTFLyvknvzQHMmspw-70" value="" style="endArrow=none;html=1;rounded=0;fontFamily=Times New Roman;fontSize=11;fontColor=#000000;exitX=-0.01;exitY=0.857;exitDx=0;exitDy=0;exitPerimeter=0;" edge="1" parent="1">
          <mxGeometry width="50" height="50" relative="1" as="geometry">
            <mxPoint x="482.5" y="569.96" as="sourcePoint" />
            <mxPoint x="472.9999999999998" y="570" as="targetPoint" />
          </mxGeometry>
        </mxCell>
        <mxCell id="EeZjTFLyvknvzQHMmspw-71" value="" style="endArrow=none;html=1;rounded=0;fontFamily=Times New Roman;fontSize=11;fontColor=#000000;exitX=-0.01;exitY=0.857;exitDx=0;exitDy=0;exitPerimeter=0;" edge="1" parent="1">
          <mxGeometry width="50" height="50" relative="1" as="geometry">
            <mxPoint x="482.9999999999998" y="560" as="sourcePoint" />
            <mxPoint x="472.9999999999998" y="560" as="targetPoint" />
          </mxGeometry>
        </mxCell>
        <mxCell id="EeZjTFLyvknvzQHMmspw-72" value="" style="endArrow=none;html=1;rounded=0;fontFamily=Times New Roman;fontSize=11;fontColor=#000000;exitX=-0.01;exitY=0.857;exitDx=0;exitDy=0;exitPerimeter=0;" edge="1" parent="1">
          <mxGeometry width="50" height="50" relative="1" as="geometry">
            <mxPoint x="482.9999999999998" y="550" as="sourcePoint" />
            <mxPoint x="472.9999999999998" y="550" as="targetPoint" />
          </mxGeometry>
        </mxCell>
        <mxCell id="EeZjTFLyvknvzQHMmspw-73" value="" style="endArrow=none;html=1;rounded=0;fontFamily=Times New Roman;fontSize=11;fontColor=#000000;exitX=-0.01;exitY=0.857;exitDx=0;exitDy=0;exitPerimeter=0;" edge="1" parent="1">
          <mxGeometry width="50" height="50" relative="1" as="geometry">
            <mxPoint x="482.9999999999998" y="540" as="sourcePoint" />
            <mxPoint x="472.9999999999998" y="540" as="targetPoint" />
          </mxGeometry>
        </mxCell>
        <mxCell id="EeZjTFLyvknvzQHMmspw-74" value="" style="endArrow=none;html=1;rounded=0;fontFamily=Times New Roman;fontSize=17;fontColor=#000000;entryX=0;entryY=0;entryDx=0;entryDy=0;" edge="1" parent="1">
          <mxGeometry width="50" height="50" relative="1" as="geometry">
            <mxPoint x="472.9999999999998" y="530" as="sourcePoint" />
            <mxPoint x="482.9999999999998" y="530" as="targetPoint" />
            <Array as="points">
              <mxPoint x="463" y="530" />
              <mxPoint x="473" y="530" />
            </Array>
          </mxGeometry>
        </mxCell>
        <mxCell id="EeZjTFLyvknvzQHMmspw-75" value="" style="endArrow=none;html=1;rounded=0;fontFamily=Times New Roman;fontSize=11;fontColor=#000000;exitX=-0.01;exitY=0.857;exitDx=0;exitDy=0;exitPerimeter=0;" edge="1" parent="1">
          <mxGeometry width="50" height="50" relative="1" as="geometry">
            <mxPoint x="482.5" y="519.96" as="sourcePoint" />
            <mxPoint x="472.9999999999998" y="520" as="targetPoint" />
          </mxGeometry>
        </mxCell>
        <mxCell id="EeZjTFLyvknvzQHMmspw-76" value="" style="endArrow=none;html=1;rounded=0;fontFamily=Times New Roman;fontSize=11;fontColor=#000000;exitX=-0.01;exitY=0.857;exitDx=0;exitDy=0;exitPerimeter=0;" edge="1" parent="1">
          <mxGeometry width="50" height="50" relative="1" as="geometry">
            <mxPoint x="482.9999999999998" y="510" as="sourcePoint" />
            <mxPoint x="472.9999999999998" y="510" as="targetPoint" />
          </mxGeometry>
        </mxCell>
        <mxCell id="EeZjTFLyvknvzQHMmspw-77" value="" style="endArrow=none;html=1;rounded=0;fontFamily=Times New Roman;fontSize=11;fontColor=#000000;exitX=-0.01;exitY=0.857;exitDx=0;exitDy=0;exitPerimeter=0;" edge="1" parent="1">
          <mxGeometry width="50" height="50" relative="1" as="geometry">
            <mxPoint x="482.9999999999998" y="500" as="sourcePoint" />
            <mxPoint x="472.9999999999998" y="500" as="targetPoint" />
          </mxGeometry>
        </mxCell>
        <mxCell id="EeZjTFLyvknvzQHMmspw-78" value="" style="endArrow=none;html=1;rounded=0;fontFamily=Times New Roman;fontSize=11;fontColor=#000000;exitX=-0.01;exitY=0.857;exitDx=0;exitDy=0;exitPerimeter=0;" edge="1" parent="1">
          <mxGeometry width="50" height="50" relative="1" as="geometry">
            <mxPoint x="482.9999999999998" y="490" as="sourcePoint" />
            <mxPoint x="472.9999999999998" y="490" as="targetPoint" />
            <Array as="points">
              <mxPoint x="483" y="490" />
            </Array>
          </mxGeometry>
        </mxCell>
        <mxCell id="EeZjTFLyvknvzQHMmspw-79" value="" style="endArrow=none;html=1;rounded=0;fontFamily=Times New Roman;fontSize=17;fontColor=#000000;entryX=0;entryY=0;entryDx=0;entryDy=0;" edge="1" parent="1">
          <mxGeometry width="50" height="50" relative="1" as="geometry">
            <mxPoint x="472.9999999999998" y="580" as="sourcePoint" />
            <mxPoint x="482.9999999999998" y="580" as="targetPoint" />
            <Array as="points">
              <mxPoint x="463" y="580" />
              <mxPoint x="473" y="580" />
            </Array>
          </mxGeometry>
        </mxCell>
        <mxCell id="EeZjTFLyvknvzQHMmspw-80" value="" style="endArrow=none;html=1;rounded=0;fontFamily=Times New Roman;fontSize=11;fontColor=#000000;exitX=-0.01;exitY=0.857;exitDx=0;exitDy=0;exitPerimeter=0;" edge="1" parent="1">
          <mxGeometry width="50" height="50" relative="1" as="geometry">
            <mxPoint x="482.5" y="569.96" as="sourcePoint" />
            <mxPoint x="472.9999999999998" y="570" as="targetPoint" />
          </mxGeometry>
        </mxCell>
        <mxCell id="EeZjTFLyvknvzQHMmspw-81" value="" style="endArrow=none;html=1;rounded=0;fontFamily=Times New Roman;fontSize=11;fontColor=#000000;exitX=-0.01;exitY=0.857;exitDx=0;exitDy=0;exitPerimeter=0;" edge="1" parent="1">
          <mxGeometry width="50" height="50" relative="1" as="geometry">
            <mxPoint x="482.9999999999998" y="560" as="sourcePoint" />
            <mxPoint x="472.9999999999998" y="560" as="targetPoint" />
          </mxGeometry>
        </mxCell>
        <mxCell id="EeZjTFLyvknvzQHMmspw-82" value="" style="endArrow=none;html=1;rounded=0;fontFamily=Times New Roman;fontSize=11;fontColor=#000000;exitX=-0.01;exitY=0.857;exitDx=0;exitDy=0;exitPerimeter=0;" edge="1" parent="1">
          <mxGeometry width="50" height="50" relative="1" as="geometry">
            <mxPoint x="482.9999999999998" y="550" as="sourcePoint" />
            <mxPoint x="472.9999999999998" y="550" as="targetPoint" />
          </mxGeometry>
        </mxCell>
        <mxCell id="EeZjTFLyvknvzQHMmspw-83" value="" style="endArrow=none;html=1;rounded=0;fontFamily=Times New Roman;fontSize=17;fontColor=#000000;entryX=0;entryY=0;entryDx=0;entryDy=0;" edge="1" parent="1">
          <mxGeometry width="50" height="50" relative="1" as="geometry">
            <mxPoint x="472.9999999999998" y="479.7800000000002" as="sourcePoint" />
            <mxPoint x="482.9999999999998" y="479.7800000000002" as="targetPoint" />
            <Array as="points">
              <mxPoint x="463" y="479.78" />
              <mxPoint x="473" y="479.78" />
            </Array>
          </mxGeometry>
        </mxCell>
        <mxCell id="EeZjTFLyvknvzQHMmspw-84" value="" style="endArrow=none;html=1;rounded=0;fontFamily=Times New Roman;fontSize=11;fontColor=#000000;exitX=-0.01;exitY=0.857;exitDx=0;exitDy=0;exitPerimeter=0;" edge="1" parent="1">
          <mxGeometry width="50" height="50" relative="1" as="geometry">
            <mxPoint x="482.5" y="469.74" as="sourcePoint" />
            <mxPoint x="472.9999999999998" y="469.7800000000002" as="targetPoint" />
          </mxGeometry>
        </mxCell>
        <mxCell id="EeZjTFLyvknvzQHMmspw-85" value="" style="endArrow=none;html=1;rounded=0;fontFamily=Times New Roman;fontSize=11;fontColor=#000000;exitX=-0.01;exitY=0.857;exitDx=0;exitDy=0;exitPerimeter=0;" edge="1" parent="1">
          <mxGeometry width="50" height="50" relative="1" as="geometry">
            <mxPoint x="482.9999999999998" y="459.77999999999975" as="sourcePoint" />
            <mxPoint x="472.9999999999998" y="459.7800000000002" as="targetPoint" />
          </mxGeometry>
        </mxCell>
        <mxCell id="EeZjTFLyvknvzQHMmspw-86" value="" style="endArrow=none;html=1;rounded=0;fontFamily=Times New Roman;fontSize=11;fontColor=#000000;exitX=-0.01;exitY=0.857;exitDx=0;exitDy=0;exitPerimeter=0;" edge="1" parent="1">
          <mxGeometry width="50" height="50" relative="1" as="geometry">
            <mxPoint x="482.9999999999998" y="449.77999999999975" as="sourcePoint" />
            <mxPoint x="472.9999999999998" y="449.7800000000002" as="targetPoint" />
          </mxGeometry>
        </mxCell>
        <mxCell id="EeZjTFLyvknvzQHMmspw-87" value="" style="endArrow=none;html=1;rounded=0;fontFamily=Times New Roman;fontSize=11;fontColor=#000000;exitX=-0.01;exitY=0.857;exitDx=0;exitDy=0;exitPerimeter=0;" edge="1" parent="1">
          <mxGeometry width="50" height="50" relative="1" as="geometry">
            <mxPoint x="482.9999999999998" y="439.77999999999975" as="sourcePoint" />
            <mxPoint x="472.9999999999998" y="439.7800000000002" as="targetPoint" />
          </mxGeometry>
        </mxCell>
        <mxCell id="EeZjTFLyvknvzQHMmspw-88" value="" style="endArrow=none;html=1;rounded=0;fontFamily=Times New Roman;fontSize=11;fontColor=#000000;exitX=-0.01;exitY=0.857;exitDx=0;exitDy=0;exitPerimeter=0;" edge="1" parent="1">
          <mxGeometry width="50" height="50" relative="1" as="geometry">
            <mxPoint x="482.9999999999998" y="389.77999999999986" as="sourcePoint" />
            <mxPoint x="472.9999999999998" y="389.7800000000003" as="targetPoint" />
          </mxGeometry>
        </mxCell>
        <mxCell id="EeZjTFLyvknvzQHMmspw-89" value="" style="endArrow=none;html=1;rounded=0;fontFamily=Times New Roman;fontSize=17;fontColor=#000000;entryX=0;entryY=0;entryDx=0;entryDy=0;" edge="1" parent="1">
          <mxGeometry width="50" height="50" relative="1" as="geometry">
            <mxPoint x="472.9999999999998" y="429.7800000000002" as="sourcePoint" />
            <mxPoint x="482.9999999999998" y="429.7800000000002" as="targetPoint" />
            <Array as="points">
              <mxPoint x="463" y="429.78" />
              <mxPoint x="473" y="429.78" />
            </Array>
          </mxGeometry>
        </mxCell>
        <mxCell id="EeZjTFLyvknvzQHMmspw-90" value="" style="endArrow=none;html=1;rounded=0;fontFamily=Times New Roman;fontSize=11;fontColor=#000000;startArrow=none;" edge="1" parent="1">
          <mxGeometry width="50" height="50" relative="1" as="geometry">
            <mxPoint x="482.9999999999998" y="419.9999999999999" as="sourcePoint" />
            <mxPoint x="472.9999999999998" y="419.9999999999999" as="targetPoint" />
          </mxGeometry>
        </mxCell>
        <mxCell id="EeZjTFLyvknvzQHMmspw-91" value="" style="endArrow=none;html=1;rounded=0;fontFamily=Times New Roman;fontSize=11;fontColor=#000000;exitX=-0.01;exitY=0.857;exitDx=0;exitDy=0;exitPerimeter=0;" edge="1" parent="1">
          <mxGeometry width="50" height="50" relative="1" as="geometry">
            <mxPoint x="482.9999999999998" y="409.77999999999986" as="sourcePoint" />
            <mxPoint x="472.9999999999998" y="409.7800000000003" as="targetPoint" />
          </mxGeometry>
        </mxCell>
        <mxCell id="EeZjTFLyvknvzQHMmspw-92" value="" style="endArrow=none;html=1;rounded=0;fontFamily=Times New Roman;fontSize=11;fontColor=#000000;exitX=-0.01;exitY=0.857;exitDx=0;exitDy=0;exitPerimeter=0;" edge="1" parent="1">
          <mxGeometry width="50" height="50" relative="1" as="geometry">
            <mxPoint x="482.9999999999998" y="399.77999999999986" as="sourcePoint" />
            <mxPoint x="472.9999999999998" y="399.7800000000003" as="targetPoint" />
          </mxGeometry>
        </mxCell>
        <mxCell id="EeZjTFLyvknvzQHMmspw-93" value="" style="endArrow=none;html=1;rounded=0;fontFamily=Times New Roman;fontSize=17;fontColor=#000000;entryX=0;entryY=0;entryDx=0;entryDy=0;" edge="1" parent="1">
          <mxGeometry width="50" height="50" relative="1" as="geometry">
            <mxPoint x="472.9999999999998" y="379.9999999999999" as="sourcePoint" />
            <mxPoint x="482.9999999999998" y="379.9999999999999" as="targetPoint" />
            <Array as="points">
              <mxPoint x="463" y="380" />
              <mxPoint x="473" y="380" />
            </Array>
          </mxGeometry>
        </mxCell>
        <mxCell id="EeZjTFLyvknvzQHMmspw-94" value="" style="rounded=0;whiteSpace=wrap;html=1;fontFamily=Times New Roman;fontSize=17;fontColor=#000000;dashed=1;" vertex="1" parent="1">
          <mxGeometry x="557" y="380" width="50" height="280" as="geometry" />
        </mxCell>
        <mxCell id="EeZjTFLyvknvzQHMmspw-95" value="&lt;b&gt;c&lt;sub&gt;2&lt;/sub&gt;&lt;/b&gt;" style="text;html=1;align=center;verticalAlign=middle;resizable=0;points=[];autosize=1;strokeColor=none;fillColor=none;fontSize=17;fontFamily=Times New Roman;fontColor=#000000;" vertex="1" parent="1">
          <mxGeometry x="567" y="350" width="30" height="30" as="geometry" />
        </mxCell>
        <mxCell id="EeZjTFLyvknvzQHMmspw-96" value="" style="rounded=0;whiteSpace=wrap;html=1;fontFamily=Times New Roman;fontSize=17;fontColor=#000000;dashed=1;" vertex="1" parent="1">
          <mxGeometry x="627" y="380" width="50" height="280" as="geometry" />
        </mxCell>
        <mxCell id="EeZjTFLyvknvzQHMmspw-97" value="&lt;b&gt;c&lt;sub&gt;3&lt;/sub&gt;&lt;/b&gt;" style="text;html=1;align=center;verticalAlign=middle;resizable=0;points=[];autosize=1;strokeColor=none;fillColor=none;fontSize=17;fontFamily=Times New Roman;fontColor=#000000;" vertex="1" parent="1">
          <mxGeometry x="637" y="350" width="30" height="30" as="geometry" />
        </mxCell>
        <mxCell id="EeZjTFLyvknvzQHMmspw-98" value="&lt;b style=&quot;font-size: 14px&quot;&gt;n&lt;sub&gt;2&lt;/sub&gt;&lt;/b&gt;" style="rounded=0;whiteSpace=wrap;html=1;fontFamily=Times New Roman;fontSize=11;fontColor=#000000;" vertex="1" parent="1">
          <mxGeometry x="557" y="400" width="50" height="100" as="geometry" />
        </mxCell>
        <mxCell id="EeZjTFLyvknvzQHMmspw-99" value="&lt;b style=&quot;font-size: 14px&quot;&gt;n&lt;sub&gt;1&lt;/sub&gt;&lt;/b&gt;" style="rounded=0;whiteSpace=wrap;html=1;fontFamily=Times New Roman;fontSize=11;fontColor=#000000;" vertex="1" parent="1">
          <mxGeometry x="557" y="380" width="50" height="20" as="geometry" />
        </mxCell>
        <mxCell id="EeZjTFLyvknvzQHMmspw-100" value="&lt;b style=&quot;font-size: 14px&quot;&gt;n&lt;sub&gt;3&lt;/sub&gt;&lt;/b&gt;" style="rounded=0;whiteSpace=wrap;html=1;fontFamily=Times New Roman;fontSize=11;fontColor=#000000;" vertex="1" parent="1">
          <mxGeometry x="627" y="410" width="50" height="20" as="geometry" />
        </mxCell>
        <mxCell id="EeZjTFLyvknvzQHMmspw-101" value="&lt;b style=&quot;font-size: 14px&quot;&gt;n&lt;sub&gt;5&lt;/sub&gt;&lt;/b&gt;" style="rounded=0;whiteSpace=wrap;html=1;fontFamily=Times New Roman;fontSize=11;fontColor=#000000;" vertex="1" parent="1">
          <mxGeometry x="627" y="430" width="50" height="60" as="geometry" />
        </mxCell>
        <mxCell id="EeZjTFLyvknvzQHMmspw-102" value="&lt;b style=&quot;font-size: 14px&quot;&gt;n&lt;sub&gt;4&lt;/sub&gt;&lt;/b&gt;" style="rounded=0;whiteSpace=wrap;html=1;fontFamily=Times New Roman;fontSize=11;fontColor=#000000;" vertex="1" parent="1">
          <mxGeometry x="557" y="500" width="50" height="30" as="geometry" />
        </mxCell>
        <mxCell id="EeZjTFLyvknvzQHMmspw-103" value="&lt;b style=&quot;font-size: 14px&quot;&gt;n&lt;sub&gt;6&lt;/sub&gt;&lt;/b&gt;" style="rounded=0;whiteSpace=wrap;html=1;fontFamily=Times New Roman;fontSize=11;fontColor=#000000;" vertex="1" parent="1">
          <mxGeometry x="627" y="550" width="50" height="20" as="geometry" />
        </mxCell>
        <mxCell id="EeZjTFLyvknvzQHMmspw-104" value="" style="endArrow=none;html=1;rounded=0;fontFamily=Times New Roman;fontSize=14;fontColor=#000000;exitX=-0.003;exitY=0.989;exitDx=0;exitDy=0;exitPerimeter=0;" edge="1" parent="1">
          <mxGeometry width="50" height="50" relative="1" as="geometry">
            <mxPoint x="482.84000000000015" y="659.9200000000001" as="sourcePoint" />
            <mxPoint x="482.9899999999998" y="379.9999999999999" as="targetPoint" />
          </mxGeometry>
        </mxCell>
        <mxCell id="EeZjTFLyvknvzQHMmspw-105" value="" style="endArrow=classicThin;html=1;rounded=0;fontFamily=Times New Roman;fontSize=14;fontColor=#000000;exitX=0.75;exitY=1;exitDx=0;exitDy=0;entryX=0.5;entryY=0;entryDx=0;entryDy=0;endFill=1;" edge="1" parent="1" source="EeZjTFLyvknvzQHMmspw-99" target="EeZjTFLyvknvzQHMmspw-100">
          <mxGeometry width="50" height="50" relative="1" as="geometry">
            <mxPoint x="579.5" y="410" as="sourcePoint" />
            <mxPoint x="522" y="430" as="targetPoint" />
          </mxGeometry>
        </mxCell>
        <mxCell id="EeZjTFLyvknvzQHMmspw-106" value="" style="endArrow=classicThin;html=1;rounded=0;fontFamily=Times New Roman;fontSize=14;fontColor=#000000;exitX=0.75;exitY=1;exitDx=0;exitDy=0;entryX=0.5;entryY=0;entryDx=0;entryDy=0;endFill=1;" edge="1" parent="1" source="EeZjTFLyvknvzQHMmspw-102" target="EeZjTFLyvknvzQHMmspw-103">
          <mxGeometry width="50" height="50" relative="1" as="geometry">
            <mxPoint x="609.5" y="420" as="sourcePoint" />
            <mxPoint x="552" y="440" as="targetPoint" />
          </mxGeometry>
        </mxCell>
        <mxCell id="EeZjTFLyvknvzQHMmspw-107" value="" style="endArrow=classicThin;html=1;rounded=0;fontFamily=Times New Roman;fontSize=14;fontColor=#000000;exitX=0.5;exitY=1;exitDx=0;exitDy=0;entryX=0.5;entryY=0;entryDx=0;entryDy=0;endFill=1;" edge="1" parent="1" source="EeZjTFLyvknvzQHMmspw-101" target="EeZjTFLyvknvzQHMmspw-103">
          <mxGeometry width="50" height="50" relative="1" as="geometry">
            <mxPoint x="619.5" y="450" as="sourcePoint" />
            <mxPoint x="562" y="470" as="targetPoint" />
          </mxGeometry>
        </mxCell>
        <mxCell id="EeZjTFLyvknvzQHMmspw-108" value="&lt;b&gt;&lt;font style=&quot;font-size: 18px&quot;&gt;a)&lt;/font&gt;&lt;/b&gt;" style="text;html=1;strokeColor=none;fillColor=none;align=center;verticalAlign=middle;whiteSpace=wrap;rounded=0;dashed=1;fontFamily=Times New Roman;fontSize=14;fontColor=#000000;" vertex="1" parent="1">
          <mxGeometry x="157" y="670" width="116.5" height="30" as="geometry" />
        </mxCell>
        <mxCell id="EeZjTFLyvknvzQHMmspw-109" value="&lt;b&gt;&lt;font style=&quot;font-size: 18px&quot;&gt;b)&lt;/font&gt;&lt;/b&gt;" style="text;html=1;strokeColor=none;fillColor=none;align=center;verticalAlign=middle;whiteSpace=wrap;rounded=0;dashed=1;fontFamily=Times New Roman;fontSize=14;fontColor=#000000;" vertex="1" parent="1">
          <mxGeometry x="527" y="670" width="116.5" height="30" as="geometry" />
        </mxCell>
        <mxCell id="EeZjTFLyvknvzQHMmspw-110" value="" style="shape=table;html=1;whiteSpace=wrap;startSize=0;container=1;collapsible=0;childLayout=tableLayout;fontFamily=Times New Roman;fontSize=17;fontColor=#000000;" vertex="1" parent="1">
          <mxGeometry x="273.5" y="230" width="180" height="40" as="geometry" />
        </mxCell>
        <mxCell id="EeZjTFLyvknvzQHMmspw-111" value="" style="shape=tableRow;horizontal=0;startSize=0;swimlaneHead=0;swimlaneBody=0;top=0;left=0;bottom=0;right=0;collapsible=0;dropTarget=0;fillColor=none;points=[[0,0.5],[1,0.5]];portConstraint=eastwest;fontFamily=Times New Roman;fontSize=17;fontColor=#000000;" vertex="1" parent="EeZjTFLyvknvzQHMmspw-110">
          <mxGeometry width="180" height="40" as="geometry" />
        </mxCell>
        <mxCell id="EeZjTFLyvknvzQHMmspw-112" value="&lt;b&gt;时间&lt;/b&gt;" style="shape=partialRectangle;html=1;whiteSpace=wrap;connectable=0;fillColor=none;top=0;left=0;bottom=0;right=0;overflow=hidden;fontFamily=Times New Roman;fontSize=17;fontColor=#000000;" vertex="1" parent="EeZjTFLyvknvzQHMmspw-111">
          <mxGeometry width="60" height="40" as="geometry">
            <mxRectangle width="60" height="40" as="alternateBounds" />
          </mxGeometry>
        </mxCell>
        <mxCell id="EeZjTFLyvknvzQHMmspw-113" value="" style="shape=partialRectangle;html=1;whiteSpace=wrap;connectable=0;fillColor=none;top=0;left=0;bottom=0;right=0;overflow=hidden;fontFamily=Times New Roman;fontSize=17;fontColor=#000000;" vertex="1" parent="EeZjTFLyvknvzQHMmspw-111">
          <mxGeometry x="60" width="60" height="40" as="geometry">
            <mxRectangle width="60" height="40" as="alternateBounds" />
          </mxGeometry>
        </mxCell>
        <mxCell id="EeZjTFLyvknvzQHMmspw-114" value="" style="shape=partialRectangle;html=1;whiteSpace=wrap;connectable=0;fillColor=none;top=0;left=0;bottom=0;right=0;overflow=hidden;pointerEvents=1;fontFamily=Times New Roman;fontSize=17;fontColor=#000000;" vertex="1" parent="EeZjTFLyvknvzQHMmspw-111">
          <mxGeometry x="120" width="60" height="40" as="geometry">
            <mxRectangle width="60" height="40" as="alternateBounds" />
          </mxGeometry>
        </mxCell>
        <mxCell id="EeZjTFLyvknvzQHMmspw-115" value="" style="shape=table;html=1;whiteSpace=wrap;startSize=0;container=1;collapsible=0;childLayout=tableLayout;fontFamily=Times New Roman;fontSize=17;fontColor=#000000;" vertex="1" parent="1">
          <mxGeometry x="273.5" y="270" width="180" height="40" as="geometry" />
        </mxCell>
        <mxCell id="EeZjTFLyvknvzQHMmspw-116" value="" style="shape=tableRow;horizontal=0;startSize=0;swimlaneHead=0;swimlaneBody=0;top=0;left=0;bottom=0;right=0;collapsible=0;dropTarget=0;fillColor=none;points=[[0,0.5],[1,0.5]];portConstraint=eastwest;fontFamily=Times New Roman;fontSize=17;fontColor=#000000;" vertex="1" parent="EeZjTFLyvknvzQHMmspw-115">
          <mxGeometry width="180" height="40" as="geometry" />
        </mxCell>
        <mxCell id="EeZjTFLyvknvzQHMmspw-117" value="&lt;b&gt;功率&lt;/b&gt;" style="shape=partialRectangle;html=1;whiteSpace=wrap;connectable=0;fillColor=none;top=0;left=0;bottom=0;right=0;overflow=hidden;fontFamily=Times New Roman;fontSize=17;fontColor=#000000;" vertex="1" parent="EeZjTFLyvknvzQHMmspw-116">
          <mxGeometry width="60" height="40" as="geometry">
            <mxRectangle width="60" height="40" as="alternateBounds" />
          </mxGeometry>
        </mxCell>
        <mxCell id="EeZjTFLyvknvzQHMmspw-118" value="" style="shape=partialRectangle;html=1;whiteSpace=wrap;connectable=0;fillColor=none;top=0;left=0;bottom=0;right=0;overflow=hidden;fontFamily=Times New Roman;fontSize=17;fontColor=#000000;" vertex="1" parent="EeZjTFLyvknvzQHMmspw-116">
          <mxGeometry x="60" width="60" height="40" as="geometry">
            <mxRectangle width="60" height="40" as="alternateBounds" />
          </mxGeometry>
        </mxCell>
        <mxCell id="EeZjTFLyvknvzQHMmspw-119" value="" style="shape=partialRectangle;html=1;whiteSpace=wrap;connectable=0;fillColor=none;top=0;left=0;bottom=0;right=0;overflow=hidden;fontFamily=Times New Roman;fontSize=17;fontColor=#000000;" vertex="1" parent="EeZjTFLyvknvzQHMmspw-116">
          <mxGeometry x="120" width="60" height="40" as="geometry">
            <mxRectangle width="60" height="40" as="alternateBounds" />
          </mxGeometry>
        </mxCell>
        <mxCell id="EeZjTFLyvknvzQHMmspw-120" value="" style="shape=partialRectangle;html=1;whiteSpace=wrap;connectable=0;fillColor=none;top=0;left=0;bottom=0;right=0;overflow=hidden;fontFamily=Times New Roman;fontSize=17;fontColor=#000000;" vertex="1" parent="1">
          <mxGeometry x="453.5" y="270" width="60" height="40" as="geometry">
            <mxRectangle width="60" height="40" as="alternateBounds" />
          </mxGeometry>
        </mxCell>
        <mxCell id="EeZjTFLyvknvzQHMmspw-121" value="" style="shape=table;html=1;whiteSpace=wrap;startSize=0;container=1;collapsible=0;childLayout=tableLayout;fontFamily=Times New Roman;fontSize=17;fontColor=#000000;" vertex="1" parent="1">
          <mxGeometry x="333.5" y="270" width="180" height="40" as="geometry" />
        </mxCell>
        <mxCell id="EeZjTFLyvknvzQHMmspw-122" value="" style="shape=tableRow;horizontal=0;startSize=0;swimlaneHead=0;swimlaneBody=0;top=0;left=0;bottom=0;right=0;collapsible=0;dropTarget=0;fillColor=none;points=[[0,0.5],[1,0.5]];portConstraint=eastwest;fontFamily=Times New Roman;fontSize=17;fontColor=#000000;" vertex="1" parent="EeZjTFLyvknvzQHMmspw-121">
          <mxGeometry width="180" height="40" as="geometry" />
        </mxCell>
        <mxCell id="EeZjTFLyvknvzQHMmspw-123" value="5" style="shape=partialRectangle;html=1;whiteSpace=wrap;connectable=0;fillColor=none;top=0;left=0;bottom=0;right=0;overflow=hidden;fontFamily=Times New Roman;fontSize=17;fontColor=#000000;" vertex="1" parent="EeZjTFLyvknvzQHMmspw-122">
          <mxGeometry width="60" height="40" as="geometry">
            <mxRectangle width="60" height="40" as="alternateBounds" />
          </mxGeometry>
        </mxCell>
        <mxCell id="EeZjTFLyvknvzQHMmspw-124" value="1" style="shape=partialRectangle;html=1;whiteSpace=wrap;connectable=0;fillColor=none;top=0;left=0;bottom=0;right=0;overflow=hidden;fontFamily=Times New Roman;fontSize=17;fontColor=#000000;" vertex="1" parent="EeZjTFLyvknvzQHMmspw-122">
          <mxGeometry x="60" width="60" height="40" as="geometry">
            <mxRectangle width="60" height="40" as="alternateBounds" />
          </mxGeometry>
        </mxCell>
        <mxCell id="EeZjTFLyvknvzQHMmspw-125" value="3" style="shape=partialRectangle;html=1;whiteSpace=wrap;connectable=0;fillColor=none;top=0;left=0;bottom=0;right=0;overflow=hidden;fontFamily=Times New Roman;fontSize=17;fontColor=#000000;" vertex="1" parent="EeZjTFLyvknvzQHMmspw-122">
          <mxGeometry x="120" width="60" height="40" as="geometry">
            <mxRectangle width="60" height="40" as="alternateBounds" />
          </mxGeometry>
        </mxCell>
        <mxCell id="EeZjTFLyvknvzQHMmspw-126" value="" style="shape=table;html=1;whiteSpace=wrap;startSize=0;container=1;collapsible=0;childLayout=tableLayout;fontFamily=Times New Roman;fontSize=17;fontColor=#000000;" vertex="1" parent="1">
          <mxGeometry x="333.5" y="230" width="180" height="40" as="geometry" />
        </mxCell>
        <mxCell id="EeZjTFLyvknvzQHMmspw-127" value="" style="shape=tableRow;horizontal=0;startSize=0;swimlaneHead=0;swimlaneBody=0;top=0;left=0;bottom=0;right=0;collapsible=0;dropTarget=0;fillColor=none;points=[[0,0.5],[1,0.5]];portConstraint=eastwest;fontFamily=Times New Roman;fontSize=17;fontColor=#000000;" vertex="1" parent="EeZjTFLyvknvzQHMmspw-126">
          <mxGeometry width="180" height="40" as="geometry" />
        </mxCell>
        <mxCell id="EeZjTFLyvknvzQHMmspw-128" value="6" style="shape=partialRectangle;html=1;whiteSpace=wrap;connectable=0;fillColor=none;top=0;left=0;bottom=0;right=0;overflow=hidden;fontFamily=Times New Roman;fontSize=17;fontColor=#000000;" vertex="1" parent="EeZjTFLyvknvzQHMmspw-127">
          <mxGeometry width="60" height="40" as="geometry">
            <mxRectangle width="60" height="40" as="alternateBounds" />
          </mxGeometry>
        </mxCell>
        <mxCell id="EeZjTFLyvknvzQHMmspw-129" value="10" style="shape=partialRectangle;html=1;whiteSpace=wrap;connectable=0;fillColor=none;top=0;left=0;bottom=0;right=0;overflow=hidden;fontFamily=Times New Roman;fontSize=17;fontColor=#000000;" vertex="1" parent="EeZjTFLyvknvzQHMmspw-127">
          <mxGeometry x="60" width="60" height="40" as="geometry">
            <mxRectangle width="60" height="40" as="alternateBounds" />
          </mxGeometry>
        </mxCell>
        <mxCell id="EeZjTFLyvknvzQHMmspw-130" value="8" style="shape=partialRectangle;html=1;whiteSpace=wrap;connectable=0;fillColor=none;top=0;left=0;bottom=0;right=0;overflow=hidden;fontFamily=Times New Roman;fontSize=17;fontColor=#000000;" vertex="1" parent="EeZjTFLyvknvzQHMmspw-127">
          <mxGeometry x="120" width="60" height="40" as="geometry">
            <mxRectangle width="60" height="40" as="alternateBounds" />
          </mxGeometry>
        </mxCell>
        <mxCell id="EeZjTFLyvknvzQHMmspw-131" value="" style="shape=table;html=1;whiteSpace=wrap;startSize=0;container=1;collapsible=0;childLayout=tableLayout;fontFamily=Times New Roman;fontSize=17;fontColor=#000000;" vertex="1" parent="1">
          <mxGeometry x="273.5" y="190" width="180" height="40" as="geometry" />
        </mxCell>
        <mxCell id="EeZjTFLyvknvzQHMmspw-132" value="" style="shape=tableRow;horizontal=0;startSize=0;swimlaneHead=0;swimlaneBody=0;top=0;left=0;bottom=0;right=0;collapsible=0;dropTarget=0;fillColor=none;points=[[0,0.5],[1,0.5]];portConstraint=eastwest;fontFamily=Times New Roman;fontSize=17;fontColor=#000000;" vertex="1" parent="EeZjTFLyvknvzQHMmspw-131">
          <mxGeometry width="180" height="40" as="geometry" />
        </mxCell>
        <mxCell id="EeZjTFLyvknvzQHMmspw-133" value="" style="shape=partialRectangle;html=1;whiteSpace=wrap;connectable=0;fillColor=none;top=0;left=0;bottom=0;right=0;overflow=hidden;fontFamily=Times New Roman;fontSize=17;fontColor=#000000;" vertex="1" parent="EeZjTFLyvknvzQHMmspw-132">
          <mxGeometry width="60" height="40" as="geometry">
            <mxRectangle width="60" height="40" as="alternateBounds" />
          </mxGeometry>
        </mxCell>
        <mxCell id="EeZjTFLyvknvzQHMmspw-134" value="" style="shape=partialRectangle;html=1;whiteSpace=wrap;connectable=0;fillColor=none;top=0;left=0;bottom=0;right=0;overflow=hidden;fontFamily=Times New Roman;fontSize=17;fontColor=#000000;" vertex="1" parent="EeZjTFLyvknvzQHMmspw-132">
          <mxGeometry x="60" width="60" height="40" as="geometry">
            <mxRectangle width="60" height="40" as="alternateBounds" />
          </mxGeometry>
        </mxCell>
        <mxCell id="EeZjTFLyvknvzQHMmspw-135" value="" style="shape=partialRectangle;html=1;whiteSpace=wrap;connectable=0;fillColor=none;top=0;left=0;bottom=0;right=0;overflow=hidden;pointerEvents=1;fontFamily=Times New Roman;fontSize=17;fontColor=#000000;" vertex="1" parent="EeZjTFLyvknvzQHMmspw-132">
          <mxGeometry x="120" width="60" height="40" as="geometry">
            <mxRectangle width="60" height="40" as="alternateBounds" />
          </mxGeometry>
        </mxCell>
        <mxCell id="EeZjTFLyvknvzQHMmspw-136" value="" style="shape=table;html=1;whiteSpace=wrap;startSize=0;container=1;collapsible=0;childLayout=tableLayout;fontFamily=Times New Roman;fontSize=17;fontColor=#000000;" vertex="1" parent="1">
          <mxGeometry x="333.5" y="190" width="180" height="40" as="geometry" />
        </mxCell>
        <mxCell id="EeZjTFLyvknvzQHMmspw-137" value="" style="shape=tableRow;horizontal=0;startSize=0;swimlaneHead=0;swimlaneBody=0;top=0;left=0;bottom=0;right=0;collapsible=0;dropTarget=0;fillColor=none;points=[[0,0.5],[1,0.5]];portConstraint=eastwest;fontFamily=Times New Roman;fontSize=17;fontColor=#000000;" vertex="1" parent="EeZjTFLyvknvzQHMmspw-136">
          <mxGeometry width="180" height="40" as="geometry" />
        </mxCell>
        <mxCell id="EeZjTFLyvknvzQHMmspw-138" value="&lt;b&gt;c&lt;sub&gt;1&lt;/sub&gt;&lt;/b&gt;" style="shape=partialRectangle;html=1;whiteSpace=wrap;connectable=0;fillColor=none;top=0;left=0;bottom=0;right=0;overflow=hidden;fontFamily=Times New Roman;fontSize=17;fontColor=#000000;" vertex="1" parent="EeZjTFLyvknvzQHMmspw-137">
          <mxGeometry width="60" height="40" as="geometry">
            <mxRectangle width="60" height="40" as="alternateBounds" />
          </mxGeometry>
        </mxCell>
        <mxCell id="EeZjTFLyvknvzQHMmspw-139" value="&lt;b&gt;c&lt;sub&gt;2&lt;/sub&gt;&lt;/b&gt;" style="shape=partialRectangle;html=1;whiteSpace=wrap;connectable=0;fillColor=none;top=0;left=0;bottom=0;right=0;overflow=hidden;fontFamily=Times New Roman;fontSize=17;fontColor=#000000;" vertex="1" parent="EeZjTFLyvknvzQHMmspw-137">
          <mxGeometry x="60" width="60" height="40" as="geometry">
            <mxRectangle width="60" height="40" as="alternateBounds" />
          </mxGeometry>
        </mxCell>
        <mxCell id="EeZjTFLyvknvzQHMmspw-140" value="&lt;b&gt;c&lt;sub&gt;3&lt;/sub&gt;&lt;/b&gt;" style="shape=partialRectangle;html=1;whiteSpace=wrap;connectable=0;fillColor=none;top=0;left=0;bottom=0;right=0;overflow=hidden;fontFamily=Times New Roman;fontSize=17;fontColor=#000000;" vertex="1" parent="EeZjTFLyvknvzQHMmspw-137">
          <mxGeometry x="120" width="60" height="40" as="geometry">
            <mxRectangle width="60" height="40" as="alternateBounds" />
          </mxGeometry>
        </mxCell>
      </root>
    </mxGraphModel>
  </diagram>
  <diagram id="z6b6TTHDZAAitPRxd12N" name="Page-2">
    <mxGraphModel dx="2206" dy="873" grid="1" gridSize="10" guides="1" tooltips="1" connect="1" arrows="1" fold="1" page="1" pageScale="1" pageWidth="827" pageHeight="1169" math="0" shadow="0">
      <root>
        <mxCell id="IKRgzNN5C5VSo4SwlW1B-0" />
        <mxCell id="IKRgzNN5C5VSo4SwlW1B-1" parent="IKRgzNN5C5VSo4SwlW1B-0" />
        <mxCell id="IKRgzNN5C5VSo4SwlW1B-2" value="" style="rounded=0;whiteSpace=wrap;html=1;fontFamily=Times New Roman;fontSize=17;fontColor=#000000;dashed=1;" vertex="1" parent="IKRgzNN5C5VSo4SwlW1B-1">
          <mxGeometry x="123.5" y="380" width="50" height="280" as="geometry" />
        </mxCell>
        <mxCell id="IKRgzNN5C5VSo4SwlW1B-3" value="&lt;b&gt;c&lt;sub&gt;1&lt;/sub&gt;&lt;/b&gt;" style="text;html=1;align=center;verticalAlign=middle;resizable=0;points=[];autosize=1;strokeColor=none;fillColor=none;fontSize=17;fontFamily=Times New Roman;fontColor=#000000;" vertex="1" parent="IKRgzNN5C5VSo4SwlW1B-1">
          <mxGeometry x="133.5" y="350" width="30" height="30" as="geometry" />
        </mxCell>
        <mxCell id="IKRgzNN5C5VSo4SwlW1B-4" value="" style="rounded=0;whiteSpace=wrap;html=1;fontFamily=Times New Roman;fontSize=17;fontColor=#000000;" vertex="1" parent="IKRgzNN5C5VSo4SwlW1B-1">
          <mxGeometry x="193.5" y="380" width="50" height="20" as="geometry" />
        </mxCell>
        <mxCell id="IKRgzNN5C5VSo4SwlW1B-5" value="" style="endArrow=none;html=1;rounded=0;fontFamily=Times New Roman;fontSize=17;fontColor=#000000;entryX=0;entryY=0;entryDx=0;entryDy=0;" edge="1" parent="IKRgzNN5C5VSo4SwlW1B-1">
          <mxGeometry width="50" height="50" relative="1" as="geometry">
            <mxPoint x="109.5" y="630" as="sourcePoint" />
            <mxPoint x="119.5" y="630" as="targetPoint" />
            <Array as="points">
              <mxPoint x="99.5" y="630" />
              <mxPoint x="109.5" y="630" />
            </Array>
          </mxGeometry>
        </mxCell>
        <mxCell id="IKRgzNN5C5VSo4SwlW1B-6" value="&lt;b&gt;&lt;font style=&quot;font-size: 11px&quot;&gt;0&lt;/font&gt;&lt;/b&gt;" style="text;html=1;align=center;verticalAlign=middle;resizable=0;points=[];autosize=1;strokeColor=none;fillColor=none;fontSize=17;fontFamily=Times New Roman;fontColor=#000000;" vertex="1" parent="IKRgzNN5C5VSo4SwlW1B-1">
          <mxGeometry x="81.5" y="364" width="20" height="30" as="geometry" />
        </mxCell>
        <mxCell id="IKRgzNN5C5VSo4SwlW1B-7" value="&lt;b&gt;&lt;font style=&quot;font-size: 11px&quot;&gt;5&lt;/font&gt;&lt;/b&gt;" style="text;html=1;align=center;verticalAlign=middle;resizable=0;points=[];autosize=1;strokeColor=none;fillColor=none;fontSize=17;fontFamily=Times New Roman;fontColor=#000000;" vertex="1" parent="IKRgzNN5C5VSo4SwlW1B-1">
          <mxGeometry x="81.5" y="414" width="20" height="30" as="geometry" />
        </mxCell>
        <mxCell id="IKRgzNN5C5VSo4SwlW1B-8" value="&lt;b&gt;&lt;font style=&quot;font-size: 11px&quot;&gt;10&lt;/font&gt;&lt;/b&gt;" style="text;html=1;align=center;verticalAlign=middle;resizable=0;points=[];autosize=1;strokeColor=none;fillColor=none;fontSize=17;fontFamily=Times New Roman;fontColor=#000000;" vertex="1" parent="IKRgzNN5C5VSo4SwlW1B-1">
          <mxGeometry x="76.5" y="463" width="30" height="30" as="geometry" />
        </mxCell>
        <mxCell id="IKRgzNN5C5VSo4SwlW1B-9" value="&lt;b&gt;&lt;font style=&quot;font-size: 11px&quot;&gt;15&lt;/font&gt;&lt;/b&gt;" style="text;html=1;align=center;verticalAlign=middle;resizable=0;points=[];autosize=1;strokeColor=none;fillColor=none;fontSize=17;fontFamily=Times New Roman;fontColor=#000000;" vertex="1" parent="IKRgzNN5C5VSo4SwlW1B-1">
          <mxGeometry x="76.5" y="513" width="30" height="30" as="geometry" />
        </mxCell>
        <mxCell id="IKRgzNN5C5VSo4SwlW1B-10" value="&lt;b&gt;&lt;font style=&quot;font-size: 11px&quot;&gt;20&lt;/font&gt;&lt;/b&gt;" style="text;html=1;align=center;verticalAlign=middle;resizable=0;points=[];autosize=1;strokeColor=none;fillColor=none;fontSize=17;fontFamily=Times New Roman;fontColor=#000000;" vertex="1" parent="IKRgzNN5C5VSo4SwlW1B-1">
          <mxGeometry x="76.5" y="563" width="30" height="30" as="geometry" />
        </mxCell>
        <mxCell id="IKRgzNN5C5VSo4SwlW1B-11" value="&lt;b&gt;&lt;font style=&quot;font-size: 11px&quot;&gt;25&lt;/font&gt;&lt;/b&gt;" style="text;html=1;align=center;verticalAlign=middle;resizable=0;points=[];autosize=1;strokeColor=none;fillColor=none;fontSize=17;fontFamily=Times New Roman;fontColor=#000000;" vertex="1" parent="IKRgzNN5C5VSo4SwlW1B-1">
          <mxGeometry x="76.5" y="614" width="30" height="30" as="geometry" />
        </mxCell>
        <mxCell id="IKRgzNN5C5VSo4SwlW1B-12" value="" style="endArrow=none;html=1;rounded=0;fontFamily=Times New Roman;fontSize=11;fontColor=#000000;" edge="1" parent="IKRgzNN5C5VSo4SwlW1B-1">
          <mxGeometry width="50" height="50" relative="1" as="geometry">
            <mxPoint x="119.5" y="620" as="sourcePoint" />
            <mxPoint x="109.5" y="620" as="targetPoint" />
          </mxGeometry>
        </mxCell>
        <mxCell id="IKRgzNN5C5VSo4SwlW1B-13" value="" style="endArrow=none;html=1;rounded=0;fontFamily=Times New Roman;fontSize=11;fontColor=#000000;exitX=-0.01;exitY=0.857;exitDx=0;exitDy=0;exitPerimeter=0;" edge="1" parent="IKRgzNN5C5VSo4SwlW1B-1">
          <mxGeometry width="50" height="50" relative="1" as="geometry">
            <mxPoint x="119.5" y="610" as="sourcePoint" />
            <mxPoint x="109.5" y="610" as="targetPoint" />
          </mxGeometry>
        </mxCell>
        <mxCell id="IKRgzNN5C5VSo4SwlW1B-14" value="" style="endArrow=none;html=1;rounded=0;fontFamily=Times New Roman;fontSize=11;fontColor=#000000;exitX=-0.01;exitY=0.857;exitDx=0;exitDy=0;exitPerimeter=0;" edge="1" parent="IKRgzNN5C5VSo4SwlW1B-1">
          <mxGeometry width="50" height="50" relative="1" as="geometry">
            <mxPoint x="119.5" y="600" as="sourcePoint" />
            <mxPoint x="109.5" y="600" as="targetPoint" />
          </mxGeometry>
        </mxCell>
        <mxCell id="IKRgzNN5C5VSo4SwlW1B-15" value="" style="endArrow=none;html=1;rounded=0;fontFamily=Times New Roman;fontSize=11;fontColor=#000000;exitX=-0.01;exitY=0.857;exitDx=0;exitDy=0;exitPerimeter=0;" edge="1" parent="IKRgzNN5C5VSo4SwlW1B-1">
          <mxGeometry width="50" height="50" relative="1" as="geometry">
            <mxPoint x="119.5" y="590" as="sourcePoint" />
            <mxPoint x="109.5" y="590" as="targetPoint" />
          </mxGeometry>
        </mxCell>
        <mxCell id="IKRgzNN5C5VSo4SwlW1B-16" value="" style="endArrow=none;html=1;rounded=0;fontFamily=Times New Roman;fontSize=17;fontColor=#000000;entryX=0;entryY=0;entryDx=0;entryDy=0;" edge="1" parent="IKRgzNN5C5VSo4SwlW1B-1">
          <mxGeometry width="50" height="50" relative="1" as="geometry">
            <mxPoint x="109.5" y="580" as="sourcePoint" />
            <mxPoint x="119.5" y="580" as="targetPoint" />
            <Array as="points">
              <mxPoint x="99.5" y="580" />
              <mxPoint x="109.5" y="580" />
            </Array>
          </mxGeometry>
        </mxCell>
        <mxCell id="IKRgzNN5C5VSo4SwlW1B-17" value="" style="endArrow=none;html=1;rounded=0;fontFamily=Times New Roman;fontSize=11;fontColor=#000000;exitX=-0.01;exitY=0.857;exitDx=0;exitDy=0;exitPerimeter=0;" edge="1" parent="IKRgzNN5C5VSo4SwlW1B-1">
          <mxGeometry width="50" height="50" relative="1" as="geometry">
            <mxPoint x="119" y="569.96" as="sourcePoint" />
            <mxPoint x="109.5" y="570" as="targetPoint" />
          </mxGeometry>
        </mxCell>
        <mxCell id="IKRgzNN5C5VSo4SwlW1B-18" value="" style="endArrow=none;html=1;rounded=0;fontFamily=Times New Roman;fontSize=11;fontColor=#000000;exitX=-0.01;exitY=0.857;exitDx=0;exitDy=0;exitPerimeter=0;" edge="1" parent="IKRgzNN5C5VSo4SwlW1B-1">
          <mxGeometry width="50" height="50" relative="1" as="geometry">
            <mxPoint x="119.5" y="560" as="sourcePoint" />
            <mxPoint x="109.5" y="560" as="targetPoint" />
          </mxGeometry>
        </mxCell>
        <mxCell id="IKRgzNN5C5VSo4SwlW1B-19" value="" style="endArrow=none;html=1;rounded=0;fontFamily=Times New Roman;fontSize=11;fontColor=#000000;exitX=-0.01;exitY=0.857;exitDx=0;exitDy=0;exitPerimeter=0;" edge="1" parent="IKRgzNN5C5VSo4SwlW1B-1">
          <mxGeometry width="50" height="50" relative="1" as="geometry">
            <mxPoint x="119.5" y="550" as="sourcePoint" />
            <mxPoint x="109.5" y="550" as="targetPoint" />
          </mxGeometry>
        </mxCell>
        <mxCell id="IKRgzNN5C5VSo4SwlW1B-20" value="" style="endArrow=none;html=1;rounded=0;fontFamily=Times New Roman;fontSize=11;fontColor=#000000;exitX=-0.01;exitY=0.857;exitDx=0;exitDy=0;exitPerimeter=0;" edge="1" parent="IKRgzNN5C5VSo4SwlW1B-1">
          <mxGeometry width="50" height="50" relative="1" as="geometry">
            <mxPoint x="119.5" y="540" as="sourcePoint" />
            <mxPoint x="109.5" y="540" as="targetPoint" />
          </mxGeometry>
        </mxCell>
        <mxCell id="IKRgzNN5C5VSo4SwlW1B-21" value="" style="endArrow=none;html=1;rounded=0;fontFamily=Times New Roman;fontSize=17;fontColor=#000000;entryX=0;entryY=0;entryDx=0;entryDy=0;" edge="1" parent="IKRgzNN5C5VSo4SwlW1B-1">
          <mxGeometry width="50" height="50" relative="1" as="geometry">
            <mxPoint x="109.5" y="530" as="sourcePoint" />
            <mxPoint x="119.5" y="530" as="targetPoint" />
            <Array as="points">
              <mxPoint x="99.5" y="530" />
              <mxPoint x="109.5" y="530" />
            </Array>
          </mxGeometry>
        </mxCell>
        <mxCell id="IKRgzNN5C5VSo4SwlW1B-22" value="" style="endArrow=none;html=1;rounded=0;fontFamily=Times New Roman;fontSize=11;fontColor=#000000;exitX=-0.01;exitY=0.857;exitDx=0;exitDy=0;exitPerimeter=0;" edge="1" parent="IKRgzNN5C5VSo4SwlW1B-1">
          <mxGeometry width="50" height="50" relative="1" as="geometry">
            <mxPoint x="119" y="519.96" as="sourcePoint" />
            <mxPoint x="109.5" y="520" as="targetPoint" />
          </mxGeometry>
        </mxCell>
        <mxCell id="IKRgzNN5C5VSo4SwlW1B-23" value="" style="endArrow=none;html=1;rounded=0;fontFamily=Times New Roman;fontSize=11;fontColor=#000000;exitX=-0.01;exitY=0.857;exitDx=0;exitDy=0;exitPerimeter=0;" edge="1" parent="IKRgzNN5C5VSo4SwlW1B-1">
          <mxGeometry width="50" height="50" relative="1" as="geometry">
            <mxPoint x="119.5" y="510" as="sourcePoint" />
            <mxPoint x="109.5" y="510" as="targetPoint" />
          </mxGeometry>
        </mxCell>
        <mxCell id="IKRgzNN5C5VSo4SwlW1B-24" value="" style="endArrow=none;html=1;rounded=0;fontFamily=Times New Roman;fontSize=11;fontColor=#000000;exitX=-0.01;exitY=0.857;exitDx=0;exitDy=0;exitPerimeter=0;" edge="1" parent="IKRgzNN5C5VSo4SwlW1B-1">
          <mxGeometry width="50" height="50" relative="1" as="geometry">
            <mxPoint x="119.5" y="500" as="sourcePoint" />
            <mxPoint x="109.5" y="500" as="targetPoint" />
          </mxGeometry>
        </mxCell>
        <mxCell id="IKRgzNN5C5VSo4SwlW1B-25" value="" style="endArrow=none;html=1;rounded=0;fontFamily=Times New Roman;fontSize=11;fontColor=#000000;exitX=-0.01;exitY=0.857;exitDx=0;exitDy=0;exitPerimeter=0;" edge="1" parent="IKRgzNN5C5VSo4SwlW1B-1">
          <mxGeometry width="50" height="50" relative="1" as="geometry">
            <mxPoint x="119.5" y="490" as="sourcePoint" />
            <mxPoint x="109.5" y="490" as="targetPoint" />
            <Array as="points">
              <mxPoint x="119.5" y="490" />
            </Array>
          </mxGeometry>
        </mxCell>
        <mxCell id="IKRgzNN5C5VSo4SwlW1B-26" value="" style="endArrow=none;html=1;rounded=0;fontFamily=Times New Roman;fontSize=17;fontColor=#000000;entryX=0;entryY=0;entryDx=0;entryDy=0;" edge="1" parent="IKRgzNN5C5VSo4SwlW1B-1">
          <mxGeometry width="50" height="50" relative="1" as="geometry">
            <mxPoint x="109.5" y="580" as="sourcePoint" />
            <mxPoint x="119.5" y="580" as="targetPoint" />
            <Array as="points">
              <mxPoint x="99.5" y="580" />
              <mxPoint x="109.5" y="580" />
            </Array>
          </mxGeometry>
        </mxCell>
        <mxCell id="IKRgzNN5C5VSo4SwlW1B-27" value="" style="endArrow=none;html=1;rounded=0;fontFamily=Times New Roman;fontSize=11;fontColor=#000000;exitX=-0.01;exitY=0.857;exitDx=0;exitDy=0;exitPerimeter=0;" edge="1" parent="IKRgzNN5C5VSo4SwlW1B-1">
          <mxGeometry width="50" height="50" relative="1" as="geometry">
            <mxPoint x="119" y="569.96" as="sourcePoint" />
            <mxPoint x="109.5" y="570" as="targetPoint" />
          </mxGeometry>
        </mxCell>
        <mxCell id="IKRgzNN5C5VSo4SwlW1B-28" value="" style="endArrow=none;html=1;rounded=0;fontFamily=Times New Roman;fontSize=11;fontColor=#000000;exitX=-0.01;exitY=0.857;exitDx=0;exitDy=0;exitPerimeter=0;" edge="1" parent="IKRgzNN5C5VSo4SwlW1B-1">
          <mxGeometry width="50" height="50" relative="1" as="geometry">
            <mxPoint x="119.5" y="560" as="sourcePoint" />
            <mxPoint x="109.5" y="560" as="targetPoint" />
          </mxGeometry>
        </mxCell>
        <mxCell id="IKRgzNN5C5VSo4SwlW1B-29" value="" style="endArrow=none;html=1;rounded=0;fontFamily=Times New Roman;fontSize=11;fontColor=#000000;exitX=-0.01;exitY=0.857;exitDx=0;exitDy=0;exitPerimeter=0;" edge="1" parent="IKRgzNN5C5VSo4SwlW1B-1">
          <mxGeometry width="50" height="50" relative="1" as="geometry">
            <mxPoint x="119.5" y="550" as="sourcePoint" />
            <mxPoint x="109.5" y="550" as="targetPoint" />
          </mxGeometry>
        </mxCell>
        <mxCell id="IKRgzNN5C5VSo4SwlW1B-30" value="" style="endArrow=none;html=1;rounded=0;fontFamily=Times New Roman;fontSize=17;fontColor=#000000;entryX=0;entryY=0;entryDx=0;entryDy=0;" edge="1" parent="IKRgzNN5C5VSo4SwlW1B-1">
          <mxGeometry width="50" height="50" relative="1" as="geometry">
            <mxPoint x="109.5" y="479.7800000000002" as="sourcePoint" />
            <mxPoint x="119.5" y="479.7800000000002" as="targetPoint" />
            <Array as="points">
              <mxPoint x="99.5" y="479.78" />
              <mxPoint x="109.5" y="479.78" />
            </Array>
          </mxGeometry>
        </mxCell>
        <mxCell id="IKRgzNN5C5VSo4SwlW1B-31" value="" style="endArrow=none;html=1;rounded=0;fontFamily=Times New Roman;fontSize=11;fontColor=#000000;exitX=-0.01;exitY=0.857;exitDx=0;exitDy=0;exitPerimeter=0;" edge="1" parent="IKRgzNN5C5VSo4SwlW1B-1">
          <mxGeometry width="50" height="50" relative="1" as="geometry">
            <mxPoint x="119" y="469.74" as="sourcePoint" />
            <mxPoint x="109.5" y="469.7800000000002" as="targetPoint" />
          </mxGeometry>
        </mxCell>
        <mxCell id="IKRgzNN5C5VSo4SwlW1B-32" value="" style="endArrow=none;html=1;rounded=0;fontFamily=Times New Roman;fontSize=11;fontColor=#000000;exitX=-0.01;exitY=0.857;exitDx=0;exitDy=0;exitPerimeter=0;" edge="1" parent="IKRgzNN5C5VSo4SwlW1B-1">
          <mxGeometry width="50" height="50" relative="1" as="geometry">
            <mxPoint x="119.5" y="459.77999999999975" as="sourcePoint" />
            <mxPoint x="109.5" y="459.7800000000002" as="targetPoint" />
          </mxGeometry>
        </mxCell>
        <mxCell id="IKRgzNN5C5VSo4SwlW1B-33" value="" style="endArrow=none;html=1;rounded=0;fontFamily=Times New Roman;fontSize=11;fontColor=#000000;exitX=-0.01;exitY=0.857;exitDx=0;exitDy=0;exitPerimeter=0;" edge="1" parent="IKRgzNN5C5VSo4SwlW1B-1">
          <mxGeometry width="50" height="50" relative="1" as="geometry">
            <mxPoint x="119.5" y="449.77999999999975" as="sourcePoint" />
            <mxPoint x="109.5" y="449.7800000000002" as="targetPoint" />
          </mxGeometry>
        </mxCell>
        <mxCell id="IKRgzNN5C5VSo4SwlW1B-34" value="" style="endArrow=none;html=1;rounded=0;fontFamily=Times New Roman;fontSize=11;fontColor=#000000;exitX=-0.01;exitY=0.857;exitDx=0;exitDy=0;exitPerimeter=0;" edge="1" parent="IKRgzNN5C5VSo4SwlW1B-1">
          <mxGeometry width="50" height="50" relative="1" as="geometry">
            <mxPoint x="119.5" y="439.77999999999975" as="sourcePoint" />
            <mxPoint x="109.5" y="439.7800000000002" as="targetPoint" />
          </mxGeometry>
        </mxCell>
        <mxCell id="IKRgzNN5C5VSo4SwlW1B-35" value="" style="endArrow=none;html=1;rounded=0;fontFamily=Times New Roman;fontSize=11;fontColor=#000000;exitX=-0.01;exitY=0.857;exitDx=0;exitDy=0;exitPerimeter=0;" edge="1" parent="IKRgzNN5C5VSo4SwlW1B-1">
          <mxGeometry width="50" height="50" relative="1" as="geometry">
            <mxPoint x="119.5" y="389.77999999999975" as="sourcePoint" />
            <mxPoint x="109.5" y="389.7800000000002" as="targetPoint" />
          </mxGeometry>
        </mxCell>
        <mxCell id="IKRgzNN5C5VSo4SwlW1B-36" value="" style="endArrow=none;html=1;rounded=0;fontFamily=Times New Roman;fontSize=17;fontColor=#000000;entryX=0;entryY=0;entryDx=0;entryDy=0;" edge="1" parent="IKRgzNN5C5VSo4SwlW1B-1">
          <mxGeometry width="50" height="50" relative="1" as="geometry">
            <mxPoint x="109.5" y="429.7800000000002" as="sourcePoint" />
            <mxPoint x="119.5" y="429.7800000000002" as="targetPoint" />
            <Array as="points">
              <mxPoint x="99.5" y="429.78" />
              <mxPoint x="109.5" y="429.78" />
            </Array>
          </mxGeometry>
        </mxCell>
        <mxCell id="IKRgzNN5C5VSo4SwlW1B-37" value="" style="endArrow=none;html=1;rounded=0;fontFamily=Times New Roman;fontSize=11;fontColor=#000000;startArrow=none;" edge="1" parent="IKRgzNN5C5VSo4SwlW1B-1">
          <mxGeometry width="50" height="50" relative="1" as="geometry">
            <mxPoint x="119.5" y="420" as="sourcePoint" />
            <mxPoint x="109.5" y="420" as="targetPoint" />
          </mxGeometry>
        </mxCell>
        <mxCell id="IKRgzNN5C5VSo4SwlW1B-38" value="" style="endArrow=none;html=1;rounded=0;fontFamily=Times New Roman;fontSize=11;fontColor=#000000;exitX=-0.01;exitY=0.857;exitDx=0;exitDy=0;exitPerimeter=0;" edge="1" parent="IKRgzNN5C5VSo4SwlW1B-1">
          <mxGeometry width="50" height="50" relative="1" as="geometry">
            <mxPoint x="119.5" y="409.77999999999975" as="sourcePoint" />
            <mxPoint x="109.5" y="409.7800000000002" as="targetPoint" />
          </mxGeometry>
        </mxCell>
        <mxCell id="IKRgzNN5C5VSo4SwlW1B-39" value="" style="endArrow=none;html=1;rounded=0;fontFamily=Times New Roman;fontSize=11;fontColor=#000000;exitX=-0.01;exitY=0.857;exitDx=0;exitDy=0;exitPerimeter=0;" edge="1" parent="IKRgzNN5C5VSo4SwlW1B-1">
          <mxGeometry width="50" height="50" relative="1" as="geometry">
            <mxPoint x="119.5" y="399.77999999999975" as="sourcePoint" />
            <mxPoint x="109.5" y="399.7800000000002" as="targetPoint" />
          </mxGeometry>
        </mxCell>
        <mxCell id="IKRgzNN5C5VSo4SwlW1B-40" value="" style="endArrow=none;html=1;rounded=0;fontFamily=Times New Roman;fontSize=17;fontColor=#000000;entryX=0;entryY=0;entryDx=0;entryDy=0;" edge="1" parent="IKRgzNN5C5VSo4SwlW1B-1">
          <mxGeometry width="50" height="50" relative="1" as="geometry">
            <mxPoint x="109.5" y="380" as="sourcePoint" />
            <mxPoint x="119.5" y="380" as="targetPoint" />
            <Array as="points">
              <mxPoint x="99.5" y="380" />
              <mxPoint x="109.5" y="380" />
            </Array>
          </mxGeometry>
        </mxCell>
        <mxCell id="IKRgzNN5C5VSo4SwlW1B-41" value="" style="rounded=0;whiteSpace=wrap;html=1;fontFamily=Times New Roman;fontSize=17;fontColor=#000000;dashed=1;" vertex="1" parent="IKRgzNN5C5VSo4SwlW1B-1">
          <mxGeometry x="193.5" y="380" width="50" height="280" as="geometry" />
        </mxCell>
        <mxCell id="IKRgzNN5C5VSo4SwlW1B-42" value="&lt;b&gt;c&lt;sub&gt;2&lt;/sub&gt;&lt;/b&gt;" style="text;html=1;align=center;verticalAlign=middle;resizable=0;points=[];autosize=1;strokeColor=none;fillColor=none;fontSize=17;fontFamily=Times New Roman;fontColor=#000000;" vertex="1" parent="IKRgzNN5C5VSo4SwlW1B-1">
          <mxGeometry x="203.5" y="350" width="30" height="30" as="geometry" />
        </mxCell>
        <mxCell id="IKRgzNN5C5VSo4SwlW1B-43" value="" style="rounded=0;whiteSpace=wrap;html=1;fontFamily=Times New Roman;fontSize=17;fontColor=#000000;dashed=1;" vertex="1" parent="IKRgzNN5C5VSo4SwlW1B-1">
          <mxGeometry x="263.5" y="380" width="50" height="280" as="geometry" />
        </mxCell>
        <mxCell id="IKRgzNN5C5VSo4SwlW1B-44" value="&lt;b&gt;c&lt;sub&gt;3&lt;/sub&gt;&lt;/b&gt;" style="text;html=1;align=center;verticalAlign=middle;resizable=0;points=[];autosize=1;strokeColor=none;fillColor=none;fontSize=17;fontFamily=Times New Roman;fontColor=#000000;" vertex="1" parent="IKRgzNN5C5VSo4SwlW1B-1">
          <mxGeometry x="273.5" y="350" width="30" height="30" as="geometry" />
        </mxCell>
        <mxCell id="IKRgzNN5C5VSo4SwlW1B-45" value="&lt;b style=&quot;font-size: 14px&quot;&gt;n&lt;sub&gt;2&lt;/sub&gt;&lt;/b&gt;" style="rounded=0;whiteSpace=wrap;html=1;fontFamily=Times New Roman;fontSize=11;fontColor=#000000;" vertex="1" parent="IKRgzNN5C5VSo4SwlW1B-1">
          <mxGeometry x="123.5" y="420" width="50" height="60" as="geometry" />
        </mxCell>
        <mxCell id="IKRgzNN5C5VSo4SwlW1B-46" value="&lt;b style=&quot;font-size: 14px&quot;&gt;n&lt;sub&gt;1&lt;/sub&gt;&lt;/b&gt;" style="rounded=0;whiteSpace=wrap;html=1;fontFamily=Times New Roman;fontSize=11;fontColor=#000000;" vertex="1" parent="IKRgzNN5C5VSo4SwlW1B-1">
          <mxGeometry x="193.5" y="380" width="50" height="20" as="geometry" />
        </mxCell>
        <mxCell id="IKRgzNN5C5VSo4SwlW1B-47" value="&lt;b style=&quot;font-size: 14px&quot;&gt;n&lt;sub&gt;3&lt;/sub&gt;&lt;/b&gt;" style="rounded=0;whiteSpace=wrap;html=1;fontFamily=Times New Roman;fontSize=11;fontColor=#000000;" vertex="1" parent="IKRgzNN5C5VSo4SwlW1B-1">
          <mxGeometry x="263.5" y="410" width="50" height="20" as="geometry" />
        </mxCell>
        <mxCell id="IKRgzNN5C5VSo4SwlW1B-48" value="&lt;b style=&quot;font-size: 14px&quot;&gt;n&lt;sub&gt;5&lt;/sub&gt;&lt;/b&gt;" style="rounded=0;whiteSpace=wrap;html=1;fontFamily=Times New Roman;fontSize=11;fontColor=#000000;" vertex="1" parent="IKRgzNN5C5VSo4SwlW1B-1">
          <mxGeometry x="193.5" y="450" width="50" height="20" as="geometry" />
        </mxCell>
        <mxCell id="IKRgzNN5C5VSo4SwlW1B-49" value="&lt;b style=&quot;font-size: 14px&quot;&gt;n&lt;sub&gt;4&lt;/sub&gt;&lt;/b&gt;" style="rounded=0;whiteSpace=wrap;html=1;fontFamily=Times New Roman;fontSize=11;fontColor=#000000;" vertex="1" parent="IKRgzNN5C5VSo4SwlW1B-1">
          <mxGeometry x="193.5" y="520" width="50" height="30" as="geometry" />
        </mxCell>
        <mxCell id="IKRgzNN5C5VSo4SwlW1B-50" value="&lt;b style=&quot;font-size: 14px&quot;&gt;n&lt;sub&gt;6&lt;/sub&gt;&lt;/b&gt;" style="rounded=0;whiteSpace=wrap;html=1;fontFamily=Times New Roman;fontSize=11;fontColor=#000000;" vertex="1" parent="IKRgzNN5C5VSo4SwlW1B-1">
          <mxGeometry x="263.5" y="570" width="50" height="20" as="geometry" />
        </mxCell>
        <mxCell id="IKRgzNN5C5VSo4SwlW1B-51" value="" style="endArrow=classicThin;html=1;rounded=0;fontFamily=Times New Roman;fontSize=14;fontColor=#000000;exitX=0.25;exitY=1;exitDx=0;exitDy=0;entryX=0.5;entryY=0;entryDx=0;entryDy=0;endFill=1;" edge="1" parent="IKRgzNN5C5VSo4SwlW1B-1" source="IKRgzNN5C5VSo4SwlW1B-46" target="IKRgzNN5C5VSo4SwlW1B-45">
          <mxGeometry width="50" height="50" relative="1" as="geometry">
            <mxPoint x="313.5" y="460" as="sourcePoint" />
            <mxPoint x="363.5" y="410" as="targetPoint" />
          </mxGeometry>
        </mxCell>
        <mxCell id="IKRgzNN5C5VSo4SwlW1B-52" value="" style="endArrow=none;html=1;rounded=0;fontFamily=Times New Roman;fontSize=14;fontColor=#000000;exitX=-0.003;exitY=0.989;exitDx=0;exitDy=0;exitPerimeter=0;" edge="1" parent="IKRgzNN5C5VSo4SwlW1B-1">
          <mxGeometry width="50" height="50" relative="1" as="geometry">
            <mxPoint x="119.34000000000015" y="659.9200000000001" as="sourcePoint" />
            <mxPoint x="119.48999999999978" y="380" as="targetPoint" />
          </mxGeometry>
        </mxCell>
        <mxCell id="IKRgzNN5C5VSo4SwlW1B-53" value="" style="endArrow=classicThin;html=1;rounded=0;fontFamily=Times New Roman;fontSize=14;fontColor=#000000;exitX=0.75;exitY=1;exitDx=0;exitDy=0;entryX=0.5;entryY=0;entryDx=0;entryDy=0;endFill=1;" edge="1" parent="IKRgzNN5C5VSo4SwlW1B-1" source="IKRgzNN5C5VSo4SwlW1B-46" target="IKRgzNN5C5VSo4SwlW1B-47">
          <mxGeometry width="50" height="50" relative="1" as="geometry">
            <mxPoint x="216" y="410" as="sourcePoint" />
            <mxPoint x="158.5" y="430" as="targetPoint" />
          </mxGeometry>
        </mxCell>
        <mxCell id="IKRgzNN5C5VSo4SwlW1B-54" value="" style="endArrow=classicThin;html=1;rounded=0;fontFamily=Times New Roman;fontSize=14;fontColor=#000000;exitX=0.25;exitY=1;exitDx=0;exitDy=0;entryX=0.5;entryY=0;entryDx=0;entryDy=0;endFill=1;" edge="1" parent="IKRgzNN5C5VSo4SwlW1B-1" source="IKRgzNN5C5VSo4SwlW1B-47" target="IKRgzNN5C5VSo4SwlW1B-48">
          <mxGeometry width="50" height="50" relative="1" as="geometry">
            <mxPoint x="226" y="420" as="sourcePoint" />
            <mxPoint x="168.5" y="440" as="targetPoint" />
          </mxGeometry>
        </mxCell>
        <mxCell id="IKRgzNN5C5VSo4SwlW1B-55" value="" style="endArrow=classicThin;html=1;rounded=0;fontFamily=Times New Roman;fontSize=14;fontColor=#000000;exitX=0.75;exitY=1;exitDx=0;exitDy=0;entryX=0.5;entryY=0;entryDx=0;entryDy=0;endFill=1;" edge="1" parent="IKRgzNN5C5VSo4SwlW1B-1" source="IKRgzNN5C5VSo4SwlW1B-45" target="IKRgzNN5C5VSo4SwlW1B-49">
          <mxGeometry width="50" height="50" relative="1" as="geometry">
            <mxPoint x="236" y="430" as="sourcePoint" />
            <mxPoint x="178.5" y="450" as="targetPoint" />
          </mxGeometry>
        </mxCell>
        <mxCell id="IKRgzNN5C5VSo4SwlW1B-56" value="" style="endArrow=classicThin;html=1;rounded=0;fontFamily=Times New Roman;fontSize=14;fontColor=#000000;exitX=0.75;exitY=1;exitDx=0;exitDy=0;entryX=0.5;entryY=0;entryDx=0;entryDy=0;endFill=1;" edge="1" parent="IKRgzNN5C5VSo4SwlW1B-1" source="IKRgzNN5C5VSo4SwlW1B-49" target="IKRgzNN5C5VSo4SwlW1B-50">
          <mxGeometry width="50" height="50" relative="1" as="geometry">
            <mxPoint x="246" y="440" as="sourcePoint" />
            <mxPoint x="188.5" y="460" as="targetPoint" />
          </mxGeometry>
        </mxCell>
        <mxCell id="IKRgzNN5C5VSo4SwlW1B-57" value="" style="endArrow=classicThin;html=1;rounded=0;fontFamily=Times New Roman;fontSize=14;fontColor=#000000;exitX=0.75;exitY=1;exitDx=0;exitDy=0;entryX=0.5;entryY=0;entryDx=0;entryDy=0;endFill=1;" edge="1" parent="IKRgzNN5C5VSo4SwlW1B-1" source="IKRgzNN5C5VSo4SwlW1B-48" target="IKRgzNN5C5VSo4SwlW1B-50">
          <mxGeometry width="50" height="50" relative="1" as="geometry">
            <mxPoint x="256" y="450" as="sourcePoint" />
            <mxPoint x="198.5" y="470" as="targetPoint" />
          </mxGeometry>
        </mxCell>
        <mxCell id="IKRgzNN5C5VSo4SwlW1B-58" value="" style="rounded=0;whiteSpace=wrap;html=1;fontFamily=Times New Roman;fontSize=17;fontColor=#000000;dashed=1;" vertex="1" parent="IKRgzNN5C5VSo4SwlW1B-1">
          <mxGeometry x="487" y="380" width="50" height="280" as="geometry" />
        </mxCell>
        <mxCell id="IKRgzNN5C5VSo4SwlW1B-59" value="&lt;b&gt;c&lt;sub&gt;1&lt;/sub&gt;&lt;/b&gt;" style="text;html=1;align=center;verticalAlign=middle;resizable=0;points=[];autosize=1;strokeColor=none;fillColor=none;fontSize=17;fontFamily=Times New Roman;fontColor=#000000;" vertex="1" parent="IKRgzNN5C5VSo4SwlW1B-1">
          <mxGeometry x="497" y="350" width="30" height="30" as="geometry" />
        </mxCell>
        <mxCell id="IKRgzNN5C5VSo4SwlW1B-60" value="" style="rounded=0;whiteSpace=wrap;html=1;fontFamily=Times New Roman;fontSize=17;fontColor=#000000;" vertex="1" parent="IKRgzNN5C5VSo4SwlW1B-1">
          <mxGeometry x="557" y="380" width="50" height="20" as="geometry" />
        </mxCell>
        <mxCell id="IKRgzNN5C5VSo4SwlW1B-61" value="" style="endArrow=none;html=1;rounded=0;fontFamily=Times New Roman;fontSize=17;fontColor=#000000;entryX=0;entryY=0;entryDx=0;entryDy=0;" edge="1" parent="IKRgzNN5C5VSo4SwlW1B-1">
          <mxGeometry width="50" height="50" relative="1" as="geometry">
            <mxPoint x="473" y="630" as="sourcePoint" />
            <mxPoint x="483" y="630" as="targetPoint" />
            <Array as="points">
              <mxPoint x="463" y="630" />
              <mxPoint x="473" y="630" />
            </Array>
          </mxGeometry>
        </mxCell>
        <mxCell id="IKRgzNN5C5VSo4SwlW1B-62" value="&lt;b&gt;&lt;font style=&quot;font-size: 11px&quot;&gt;0&lt;/font&gt;&lt;/b&gt;" style="text;html=1;align=center;verticalAlign=middle;resizable=0;points=[];autosize=1;strokeColor=none;fillColor=none;fontSize=17;fontFamily=Times New Roman;fontColor=#000000;" vertex="1" parent="IKRgzNN5C5VSo4SwlW1B-1">
          <mxGeometry x="445" y="364" width="20" height="30" as="geometry" />
        </mxCell>
        <mxCell id="IKRgzNN5C5VSo4SwlW1B-63" value="&lt;b&gt;&lt;font style=&quot;font-size: 11px&quot;&gt;5&lt;/font&gt;&lt;/b&gt;" style="text;html=1;align=center;verticalAlign=middle;resizable=0;points=[];autosize=1;strokeColor=none;fillColor=none;fontSize=17;fontFamily=Times New Roman;fontColor=#000000;" vertex="1" parent="IKRgzNN5C5VSo4SwlW1B-1">
          <mxGeometry x="445" y="414" width="20" height="30" as="geometry" />
        </mxCell>
        <mxCell id="IKRgzNN5C5VSo4SwlW1B-64" value="&lt;b&gt;&lt;font style=&quot;font-size: 11px&quot;&gt;10&lt;/font&gt;&lt;/b&gt;" style="text;html=1;align=center;verticalAlign=middle;resizable=0;points=[];autosize=1;strokeColor=none;fillColor=none;fontSize=17;fontFamily=Times New Roman;fontColor=#000000;" vertex="1" parent="IKRgzNN5C5VSo4SwlW1B-1">
          <mxGeometry x="440" y="463" width="30" height="30" as="geometry" />
        </mxCell>
        <mxCell id="IKRgzNN5C5VSo4SwlW1B-65" value="&lt;b&gt;&lt;font style=&quot;font-size: 11px&quot;&gt;15&lt;/font&gt;&lt;/b&gt;" style="text;html=1;align=center;verticalAlign=middle;resizable=0;points=[];autosize=1;strokeColor=none;fillColor=none;fontSize=17;fontFamily=Times New Roman;fontColor=#000000;" vertex="1" parent="IKRgzNN5C5VSo4SwlW1B-1">
          <mxGeometry x="440" y="513" width="30" height="30" as="geometry" />
        </mxCell>
        <mxCell id="IKRgzNN5C5VSo4SwlW1B-66" value="&lt;b&gt;&lt;font style=&quot;font-size: 11px&quot;&gt;20&lt;/font&gt;&lt;/b&gt;" style="text;html=1;align=center;verticalAlign=middle;resizable=0;points=[];autosize=1;strokeColor=none;fillColor=none;fontSize=17;fontFamily=Times New Roman;fontColor=#000000;" vertex="1" parent="IKRgzNN5C5VSo4SwlW1B-1">
          <mxGeometry x="440" y="563" width="30" height="30" as="geometry" />
        </mxCell>
        <mxCell id="IKRgzNN5C5VSo4SwlW1B-67" value="&lt;b&gt;&lt;font style=&quot;font-size: 11px&quot;&gt;25&lt;/font&gt;&lt;/b&gt;" style="text;html=1;align=center;verticalAlign=middle;resizable=0;points=[];autosize=1;strokeColor=none;fillColor=none;fontSize=17;fontFamily=Times New Roman;fontColor=#000000;" vertex="1" parent="IKRgzNN5C5VSo4SwlW1B-1">
          <mxGeometry x="440" y="614" width="30" height="30" as="geometry" />
        </mxCell>
        <mxCell id="IKRgzNN5C5VSo4SwlW1B-68" value="" style="endArrow=none;html=1;rounded=0;fontFamily=Times New Roman;fontSize=11;fontColor=#000000;" edge="1" parent="IKRgzNN5C5VSo4SwlW1B-1">
          <mxGeometry width="50" height="50" relative="1" as="geometry">
            <mxPoint x="483" y="620" as="sourcePoint" />
            <mxPoint x="473" y="620" as="targetPoint" />
          </mxGeometry>
        </mxCell>
        <mxCell id="IKRgzNN5C5VSo4SwlW1B-69" value="" style="endArrow=none;html=1;rounded=0;fontFamily=Times New Roman;fontSize=11;fontColor=#000000;exitX=-0.01;exitY=0.857;exitDx=0;exitDy=0;exitPerimeter=0;" edge="1" parent="IKRgzNN5C5VSo4SwlW1B-1">
          <mxGeometry width="50" height="50" relative="1" as="geometry">
            <mxPoint x="483" y="610" as="sourcePoint" />
            <mxPoint x="473" y="610" as="targetPoint" />
          </mxGeometry>
        </mxCell>
        <mxCell id="IKRgzNN5C5VSo4SwlW1B-70" value="" style="endArrow=none;html=1;rounded=0;fontFamily=Times New Roman;fontSize=11;fontColor=#000000;exitX=-0.01;exitY=0.857;exitDx=0;exitDy=0;exitPerimeter=0;" edge="1" parent="IKRgzNN5C5VSo4SwlW1B-1">
          <mxGeometry width="50" height="50" relative="1" as="geometry">
            <mxPoint x="483" y="600" as="sourcePoint" />
            <mxPoint x="473" y="600" as="targetPoint" />
          </mxGeometry>
        </mxCell>
        <mxCell id="IKRgzNN5C5VSo4SwlW1B-71" value="" style="endArrow=none;html=1;rounded=0;fontFamily=Times New Roman;fontSize=11;fontColor=#000000;exitX=-0.01;exitY=0.857;exitDx=0;exitDy=0;exitPerimeter=0;" edge="1" parent="IKRgzNN5C5VSo4SwlW1B-1">
          <mxGeometry width="50" height="50" relative="1" as="geometry">
            <mxPoint x="483" y="590" as="sourcePoint" />
            <mxPoint x="473" y="590" as="targetPoint" />
          </mxGeometry>
        </mxCell>
        <mxCell id="IKRgzNN5C5VSo4SwlW1B-72" value="" style="endArrow=none;html=1;rounded=0;fontFamily=Times New Roman;fontSize=17;fontColor=#000000;entryX=0;entryY=0;entryDx=0;entryDy=0;" edge="1" parent="IKRgzNN5C5VSo4SwlW1B-1">
          <mxGeometry width="50" height="50" relative="1" as="geometry">
            <mxPoint x="473" y="580" as="sourcePoint" />
            <mxPoint x="483" y="580" as="targetPoint" />
            <Array as="points">
              <mxPoint x="463" y="580" />
              <mxPoint x="473" y="580" />
            </Array>
          </mxGeometry>
        </mxCell>
        <mxCell id="IKRgzNN5C5VSo4SwlW1B-73" value="" style="endArrow=none;html=1;rounded=0;fontFamily=Times New Roman;fontSize=11;fontColor=#000000;exitX=-0.01;exitY=0.857;exitDx=0;exitDy=0;exitPerimeter=0;" edge="1" parent="IKRgzNN5C5VSo4SwlW1B-1">
          <mxGeometry width="50" height="50" relative="1" as="geometry">
            <mxPoint x="482.5" y="569.96" as="sourcePoint" />
            <mxPoint x="473" y="570" as="targetPoint" />
          </mxGeometry>
        </mxCell>
        <mxCell id="IKRgzNN5C5VSo4SwlW1B-74" value="" style="endArrow=none;html=1;rounded=0;fontFamily=Times New Roman;fontSize=11;fontColor=#000000;exitX=-0.01;exitY=0.857;exitDx=0;exitDy=0;exitPerimeter=0;" edge="1" parent="IKRgzNN5C5VSo4SwlW1B-1">
          <mxGeometry width="50" height="50" relative="1" as="geometry">
            <mxPoint x="483" y="560" as="sourcePoint" />
            <mxPoint x="473" y="560" as="targetPoint" />
          </mxGeometry>
        </mxCell>
        <mxCell id="IKRgzNN5C5VSo4SwlW1B-75" value="" style="endArrow=none;html=1;rounded=0;fontFamily=Times New Roman;fontSize=11;fontColor=#000000;exitX=-0.01;exitY=0.857;exitDx=0;exitDy=0;exitPerimeter=0;" edge="1" parent="IKRgzNN5C5VSo4SwlW1B-1">
          <mxGeometry width="50" height="50" relative="1" as="geometry">
            <mxPoint x="483" y="550" as="sourcePoint" />
            <mxPoint x="473" y="550" as="targetPoint" />
          </mxGeometry>
        </mxCell>
        <mxCell id="IKRgzNN5C5VSo4SwlW1B-76" value="" style="endArrow=none;html=1;rounded=0;fontFamily=Times New Roman;fontSize=11;fontColor=#000000;exitX=-0.01;exitY=0.857;exitDx=0;exitDy=0;exitPerimeter=0;" edge="1" parent="IKRgzNN5C5VSo4SwlW1B-1">
          <mxGeometry width="50" height="50" relative="1" as="geometry">
            <mxPoint x="483" y="540" as="sourcePoint" />
            <mxPoint x="473" y="540" as="targetPoint" />
          </mxGeometry>
        </mxCell>
        <mxCell id="IKRgzNN5C5VSo4SwlW1B-77" value="" style="endArrow=none;html=1;rounded=0;fontFamily=Times New Roman;fontSize=17;fontColor=#000000;entryX=0;entryY=0;entryDx=0;entryDy=0;" edge="1" parent="IKRgzNN5C5VSo4SwlW1B-1">
          <mxGeometry width="50" height="50" relative="1" as="geometry">
            <mxPoint x="473" y="530" as="sourcePoint" />
            <mxPoint x="483" y="530" as="targetPoint" />
            <Array as="points">
              <mxPoint x="463" y="530" />
              <mxPoint x="473" y="530" />
            </Array>
          </mxGeometry>
        </mxCell>
        <mxCell id="IKRgzNN5C5VSo4SwlW1B-78" value="" style="endArrow=none;html=1;rounded=0;fontFamily=Times New Roman;fontSize=11;fontColor=#000000;exitX=-0.01;exitY=0.857;exitDx=0;exitDy=0;exitPerimeter=0;" edge="1" parent="IKRgzNN5C5VSo4SwlW1B-1">
          <mxGeometry width="50" height="50" relative="1" as="geometry">
            <mxPoint x="482.5" y="519.96" as="sourcePoint" />
            <mxPoint x="473" y="520" as="targetPoint" />
          </mxGeometry>
        </mxCell>
        <mxCell id="IKRgzNN5C5VSo4SwlW1B-79" value="" style="endArrow=none;html=1;rounded=0;fontFamily=Times New Roman;fontSize=11;fontColor=#000000;exitX=-0.01;exitY=0.857;exitDx=0;exitDy=0;exitPerimeter=0;" edge="1" parent="IKRgzNN5C5VSo4SwlW1B-1">
          <mxGeometry width="50" height="50" relative="1" as="geometry">
            <mxPoint x="483" y="510" as="sourcePoint" />
            <mxPoint x="473" y="510" as="targetPoint" />
          </mxGeometry>
        </mxCell>
        <mxCell id="IKRgzNN5C5VSo4SwlW1B-80" value="" style="endArrow=none;html=1;rounded=0;fontFamily=Times New Roman;fontSize=11;fontColor=#000000;exitX=-0.01;exitY=0.857;exitDx=0;exitDy=0;exitPerimeter=0;" edge="1" parent="IKRgzNN5C5VSo4SwlW1B-1">
          <mxGeometry width="50" height="50" relative="1" as="geometry">
            <mxPoint x="483" y="500" as="sourcePoint" />
            <mxPoint x="473" y="500" as="targetPoint" />
          </mxGeometry>
        </mxCell>
        <mxCell id="IKRgzNN5C5VSo4SwlW1B-81" value="" style="endArrow=none;html=1;rounded=0;fontFamily=Times New Roman;fontSize=11;fontColor=#000000;exitX=-0.01;exitY=0.857;exitDx=0;exitDy=0;exitPerimeter=0;" edge="1" parent="IKRgzNN5C5VSo4SwlW1B-1">
          <mxGeometry width="50" height="50" relative="1" as="geometry">
            <mxPoint x="483" y="490" as="sourcePoint" />
            <mxPoint x="473" y="490" as="targetPoint" />
            <Array as="points">
              <mxPoint x="483" y="490" />
            </Array>
          </mxGeometry>
        </mxCell>
        <mxCell id="IKRgzNN5C5VSo4SwlW1B-82" value="" style="endArrow=none;html=1;rounded=0;fontFamily=Times New Roman;fontSize=17;fontColor=#000000;entryX=0;entryY=0;entryDx=0;entryDy=0;" edge="1" parent="IKRgzNN5C5VSo4SwlW1B-1">
          <mxGeometry width="50" height="50" relative="1" as="geometry">
            <mxPoint x="473" y="580" as="sourcePoint" />
            <mxPoint x="483" y="580" as="targetPoint" />
            <Array as="points">
              <mxPoint x="463" y="580" />
              <mxPoint x="473" y="580" />
            </Array>
          </mxGeometry>
        </mxCell>
        <mxCell id="IKRgzNN5C5VSo4SwlW1B-83" value="" style="endArrow=none;html=1;rounded=0;fontFamily=Times New Roman;fontSize=11;fontColor=#000000;exitX=-0.01;exitY=0.857;exitDx=0;exitDy=0;exitPerimeter=0;" edge="1" parent="IKRgzNN5C5VSo4SwlW1B-1">
          <mxGeometry width="50" height="50" relative="1" as="geometry">
            <mxPoint x="482.5" y="569.96" as="sourcePoint" />
            <mxPoint x="473" y="570" as="targetPoint" />
          </mxGeometry>
        </mxCell>
        <mxCell id="IKRgzNN5C5VSo4SwlW1B-84" value="" style="endArrow=none;html=1;rounded=0;fontFamily=Times New Roman;fontSize=11;fontColor=#000000;exitX=-0.01;exitY=0.857;exitDx=0;exitDy=0;exitPerimeter=0;" edge="1" parent="IKRgzNN5C5VSo4SwlW1B-1">
          <mxGeometry width="50" height="50" relative="1" as="geometry">
            <mxPoint x="483" y="560" as="sourcePoint" />
            <mxPoint x="473" y="560" as="targetPoint" />
          </mxGeometry>
        </mxCell>
        <mxCell id="IKRgzNN5C5VSo4SwlW1B-85" value="" style="endArrow=none;html=1;rounded=0;fontFamily=Times New Roman;fontSize=11;fontColor=#000000;exitX=-0.01;exitY=0.857;exitDx=0;exitDy=0;exitPerimeter=0;" edge="1" parent="IKRgzNN5C5VSo4SwlW1B-1">
          <mxGeometry width="50" height="50" relative="1" as="geometry">
            <mxPoint x="483" y="550" as="sourcePoint" />
            <mxPoint x="473" y="550" as="targetPoint" />
          </mxGeometry>
        </mxCell>
        <mxCell id="IKRgzNN5C5VSo4SwlW1B-86" value="" style="endArrow=none;html=1;rounded=0;fontFamily=Times New Roman;fontSize=17;fontColor=#000000;entryX=0;entryY=0;entryDx=0;entryDy=0;" edge="1" parent="IKRgzNN5C5VSo4SwlW1B-1">
          <mxGeometry width="50" height="50" relative="1" as="geometry">
            <mxPoint x="473" y="479.7800000000002" as="sourcePoint" />
            <mxPoint x="483" y="479.7800000000002" as="targetPoint" />
            <Array as="points">
              <mxPoint x="463" y="479.78" />
              <mxPoint x="473" y="479.78" />
            </Array>
          </mxGeometry>
        </mxCell>
        <mxCell id="IKRgzNN5C5VSo4SwlW1B-87" value="" style="endArrow=none;html=1;rounded=0;fontFamily=Times New Roman;fontSize=11;fontColor=#000000;exitX=-0.01;exitY=0.857;exitDx=0;exitDy=0;exitPerimeter=0;" edge="1" parent="IKRgzNN5C5VSo4SwlW1B-1">
          <mxGeometry width="50" height="50" relative="1" as="geometry">
            <mxPoint x="482.5" y="469.74" as="sourcePoint" />
            <mxPoint x="473" y="469.7800000000002" as="targetPoint" />
          </mxGeometry>
        </mxCell>
        <mxCell id="IKRgzNN5C5VSo4SwlW1B-88" value="" style="endArrow=none;html=1;rounded=0;fontFamily=Times New Roman;fontSize=11;fontColor=#000000;exitX=-0.01;exitY=0.857;exitDx=0;exitDy=0;exitPerimeter=0;" edge="1" parent="IKRgzNN5C5VSo4SwlW1B-1">
          <mxGeometry width="50" height="50" relative="1" as="geometry">
            <mxPoint x="483" y="459.77999999999975" as="sourcePoint" />
            <mxPoint x="473" y="459.7800000000002" as="targetPoint" />
          </mxGeometry>
        </mxCell>
        <mxCell id="IKRgzNN5C5VSo4SwlW1B-89" value="" style="endArrow=none;html=1;rounded=0;fontFamily=Times New Roman;fontSize=11;fontColor=#000000;exitX=-0.01;exitY=0.857;exitDx=0;exitDy=0;exitPerimeter=0;" edge="1" parent="IKRgzNN5C5VSo4SwlW1B-1">
          <mxGeometry width="50" height="50" relative="1" as="geometry">
            <mxPoint x="483" y="449.77999999999975" as="sourcePoint" />
            <mxPoint x="473" y="449.7800000000002" as="targetPoint" />
          </mxGeometry>
        </mxCell>
        <mxCell id="IKRgzNN5C5VSo4SwlW1B-90" value="" style="endArrow=none;html=1;rounded=0;fontFamily=Times New Roman;fontSize=11;fontColor=#000000;exitX=-0.01;exitY=0.857;exitDx=0;exitDy=0;exitPerimeter=0;" edge="1" parent="IKRgzNN5C5VSo4SwlW1B-1">
          <mxGeometry width="50" height="50" relative="1" as="geometry">
            <mxPoint x="483" y="439.77999999999975" as="sourcePoint" />
            <mxPoint x="473" y="439.7800000000002" as="targetPoint" />
          </mxGeometry>
        </mxCell>
        <mxCell id="IKRgzNN5C5VSo4SwlW1B-91" value="" style="endArrow=none;html=1;rounded=0;fontFamily=Times New Roman;fontSize=11;fontColor=#000000;exitX=-0.01;exitY=0.857;exitDx=0;exitDy=0;exitPerimeter=0;" edge="1" parent="IKRgzNN5C5VSo4SwlW1B-1">
          <mxGeometry width="50" height="50" relative="1" as="geometry">
            <mxPoint x="483" y="389.77999999999975" as="sourcePoint" />
            <mxPoint x="473" y="389.7800000000002" as="targetPoint" />
          </mxGeometry>
        </mxCell>
        <mxCell id="IKRgzNN5C5VSo4SwlW1B-92" value="" style="endArrow=none;html=1;rounded=0;fontFamily=Times New Roman;fontSize=17;fontColor=#000000;entryX=0;entryY=0;entryDx=0;entryDy=0;" edge="1" parent="IKRgzNN5C5VSo4SwlW1B-1">
          <mxGeometry width="50" height="50" relative="1" as="geometry">
            <mxPoint x="473" y="429.7800000000002" as="sourcePoint" />
            <mxPoint x="483" y="429.7800000000002" as="targetPoint" />
            <Array as="points">
              <mxPoint x="463" y="429.78" />
              <mxPoint x="473" y="429.78" />
            </Array>
          </mxGeometry>
        </mxCell>
        <mxCell id="IKRgzNN5C5VSo4SwlW1B-93" value="" style="endArrow=none;html=1;rounded=0;fontFamily=Times New Roman;fontSize=11;fontColor=#000000;startArrow=none;" edge="1" parent="IKRgzNN5C5VSo4SwlW1B-1">
          <mxGeometry width="50" height="50" relative="1" as="geometry">
            <mxPoint x="483" y="420" as="sourcePoint" />
            <mxPoint x="473" y="420" as="targetPoint" />
          </mxGeometry>
        </mxCell>
        <mxCell id="IKRgzNN5C5VSo4SwlW1B-94" value="" style="endArrow=none;html=1;rounded=0;fontFamily=Times New Roman;fontSize=11;fontColor=#000000;exitX=-0.01;exitY=0.857;exitDx=0;exitDy=0;exitPerimeter=0;" edge="1" parent="IKRgzNN5C5VSo4SwlW1B-1">
          <mxGeometry width="50" height="50" relative="1" as="geometry">
            <mxPoint x="483" y="409.77999999999975" as="sourcePoint" />
            <mxPoint x="473" y="409.7800000000002" as="targetPoint" />
          </mxGeometry>
        </mxCell>
        <mxCell id="IKRgzNN5C5VSo4SwlW1B-95" value="" style="endArrow=none;html=1;rounded=0;fontFamily=Times New Roman;fontSize=11;fontColor=#000000;exitX=-0.01;exitY=0.857;exitDx=0;exitDy=0;exitPerimeter=0;" edge="1" parent="IKRgzNN5C5VSo4SwlW1B-1">
          <mxGeometry width="50" height="50" relative="1" as="geometry">
            <mxPoint x="483" y="399.77999999999975" as="sourcePoint" />
            <mxPoint x="473" y="399.7800000000002" as="targetPoint" />
          </mxGeometry>
        </mxCell>
        <mxCell id="IKRgzNN5C5VSo4SwlW1B-96" value="" style="endArrow=none;html=1;rounded=0;fontFamily=Times New Roman;fontSize=17;fontColor=#000000;entryX=0;entryY=0;entryDx=0;entryDy=0;" edge="1" parent="IKRgzNN5C5VSo4SwlW1B-1">
          <mxGeometry width="50" height="50" relative="1" as="geometry">
            <mxPoint x="473" y="380" as="sourcePoint" />
            <mxPoint x="483" y="380" as="targetPoint" />
            <Array as="points">
              <mxPoint x="463" y="380" />
              <mxPoint x="473" y="380" />
            </Array>
          </mxGeometry>
        </mxCell>
        <mxCell id="IKRgzNN5C5VSo4SwlW1B-97" value="" style="rounded=0;whiteSpace=wrap;html=1;fontFamily=Times New Roman;fontSize=17;fontColor=#000000;dashed=1;" vertex="1" parent="IKRgzNN5C5VSo4SwlW1B-1">
          <mxGeometry x="557" y="380" width="50" height="280" as="geometry" />
        </mxCell>
        <mxCell id="IKRgzNN5C5VSo4SwlW1B-98" value="&lt;b&gt;c&lt;sub&gt;2&lt;/sub&gt;&lt;/b&gt;" style="text;html=1;align=center;verticalAlign=middle;resizable=0;points=[];autosize=1;strokeColor=none;fillColor=none;fontSize=17;fontFamily=Times New Roman;fontColor=#000000;" vertex="1" parent="IKRgzNN5C5VSo4SwlW1B-1">
          <mxGeometry x="567" y="350" width="30" height="30" as="geometry" />
        </mxCell>
        <mxCell id="IKRgzNN5C5VSo4SwlW1B-99" value="" style="rounded=0;whiteSpace=wrap;html=1;fontFamily=Times New Roman;fontSize=17;fontColor=#000000;dashed=1;" vertex="1" parent="IKRgzNN5C5VSo4SwlW1B-1">
          <mxGeometry x="627" y="380" width="50" height="280" as="geometry" />
        </mxCell>
        <mxCell id="IKRgzNN5C5VSo4SwlW1B-100" value="&lt;b&gt;c&lt;sub&gt;3&lt;/sub&gt;&lt;/b&gt;" style="text;html=1;align=center;verticalAlign=middle;resizable=0;points=[];autosize=1;strokeColor=none;fillColor=none;fontSize=17;fontFamily=Times New Roman;fontColor=#000000;" vertex="1" parent="IKRgzNN5C5VSo4SwlW1B-1">
          <mxGeometry x="637" y="350" width="30" height="30" as="geometry" />
        </mxCell>
        <mxCell id="IKRgzNN5C5VSo4SwlW1B-101" value="&lt;b style=&quot;font-size: 14px&quot;&gt;n&lt;sub&gt;2&lt;/sub&gt;&lt;/b&gt;" style="rounded=0;whiteSpace=wrap;html=1;fontFamily=Times New Roman;fontSize=11;fontColor=#000000;" vertex="1" parent="IKRgzNN5C5VSo4SwlW1B-1">
          <mxGeometry x="487" y="420" width="50" height="60" as="geometry" />
        </mxCell>
        <mxCell id="IKRgzNN5C5VSo4SwlW1B-102" value="&lt;b style=&quot;font-size: 14px&quot;&gt;n&lt;sub&gt;1&lt;/sub&gt;&lt;/b&gt;" style="rounded=0;whiteSpace=wrap;html=1;fontFamily=Times New Roman;fontSize=11;fontColor=#000000;" vertex="1" parent="IKRgzNN5C5VSo4SwlW1B-1">
          <mxGeometry x="557" y="380" width="50" height="20" as="geometry" />
        </mxCell>
        <mxCell id="IKRgzNN5C5VSo4SwlW1B-103" value="&lt;b style=&quot;font-size: 14px&quot;&gt;n&lt;sub&gt;3&lt;/sub&gt;&lt;/b&gt;" style="rounded=0;whiteSpace=wrap;html=1;fontFamily=Times New Roman;fontSize=11;fontColor=#000000;" vertex="1" parent="IKRgzNN5C5VSo4SwlW1B-1">
          <mxGeometry x="627" y="410" width="50" height="20" as="geometry" />
        </mxCell>
        <mxCell id="IKRgzNN5C5VSo4SwlW1B-104" value="&lt;b style=&quot;font-size: 14px&quot;&gt;n&lt;sub&gt;5&lt;/sub&gt;&lt;/b&gt;" style="rounded=0;whiteSpace=wrap;html=1;fontFamily=Times New Roman;fontSize=11;fontColor=#000000;" vertex="1" parent="IKRgzNN5C5VSo4SwlW1B-1">
          <mxGeometry x="627" y="430" width="50" height="60" as="geometry" />
        </mxCell>
        <mxCell id="IKRgzNN5C5VSo4SwlW1B-105" value="&lt;b style=&quot;font-size: 14px&quot;&gt;n&lt;sub&gt;4&lt;/sub&gt;&lt;/b&gt;" style="rounded=0;whiteSpace=wrap;html=1;fontFamily=Times New Roman;fontSize=11;fontColor=#000000;" vertex="1" parent="IKRgzNN5C5VSo4SwlW1B-1">
          <mxGeometry x="557" y="520" width="50" height="30" as="geometry" />
        </mxCell>
        <mxCell id="IKRgzNN5C5VSo4SwlW1B-106" value="&lt;b style=&quot;font-size: 14px&quot;&gt;n&lt;sub&gt;6&lt;/sub&gt;&lt;/b&gt;" style="rounded=0;whiteSpace=wrap;html=1;fontFamily=Times New Roman;fontSize=11;fontColor=#000000;" vertex="1" parent="IKRgzNN5C5VSo4SwlW1B-1">
          <mxGeometry x="627" y="570" width="50" height="20" as="geometry" />
        </mxCell>
        <mxCell id="IKRgzNN5C5VSo4SwlW1B-107" value="" style="endArrow=classicThin;html=1;rounded=0;fontFamily=Times New Roman;fontSize=14;fontColor=#000000;exitX=0.25;exitY=1;exitDx=0;exitDy=0;entryX=0.5;entryY=0;entryDx=0;entryDy=0;endFill=1;" edge="1" parent="IKRgzNN5C5VSo4SwlW1B-1" source="IKRgzNN5C5VSo4SwlW1B-102" target="IKRgzNN5C5VSo4SwlW1B-101">
          <mxGeometry width="50" height="50" relative="1" as="geometry">
            <mxPoint x="677" y="460" as="sourcePoint" />
            <mxPoint x="727" y="410" as="targetPoint" />
          </mxGeometry>
        </mxCell>
        <mxCell id="IKRgzNN5C5VSo4SwlW1B-108" value="" style="endArrow=none;html=1;rounded=0;fontFamily=Times New Roman;fontSize=14;fontColor=#000000;exitX=-0.003;exitY=0.989;exitDx=0;exitDy=0;exitPerimeter=0;" edge="1" parent="IKRgzNN5C5VSo4SwlW1B-1">
          <mxGeometry width="50" height="50" relative="1" as="geometry">
            <mxPoint x="482.84000000000015" y="659.9200000000001" as="sourcePoint" />
            <mxPoint x="482.9899999999998" y="380" as="targetPoint" />
          </mxGeometry>
        </mxCell>
        <mxCell id="IKRgzNN5C5VSo4SwlW1B-109" value="" style="endArrow=classicThin;html=1;rounded=0;fontFamily=Times New Roman;fontSize=14;fontColor=#000000;exitX=0.75;exitY=1;exitDx=0;exitDy=0;entryX=0.5;entryY=0;entryDx=0;entryDy=0;endFill=1;" edge="1" parent="IKRgzNN5C5VSo4SwlW1B-1" source="IKRgzNN5C5VSo4SwlW1B-102" target="IKRgzNN5C5VSo4SwlW1B-103">
          <mxGeometry width="50" height="50" relative="1" as="geometry">
            <mxPoint x="579.5" y="410" as="sourcePoint" />
            <mxPoint x="522" y="430" as="targetPoint" />
          </mxGeometry>
        </mxCell>
        <mxCell id="IKRgzNN5C5VSo4SwlW1B-110" value="" style="endArrow=classicThin;html=1;rounded=0;fontFamily=Times New Roman;fontSize=14;fontColor=#000000;exitX=0.75;exitY=1;exitDx=0;exitDy=0;entryX=0.5;entryY=0;entryDx=0;entryDy=0;endFill=1;" edge="1" parent="IKRgzNN5C5VSo4SwlW1B-1" source="IKRgzNN5C5VSo4SwlW1B-101" target="IKRgzNN5C5VSo4SwlW1B-105">
          <mxGeometry width="50" height="50" relative="1" as="geometry">
            <mxPoint x="599.5" y="430" as="sourcePoint" />
            <mxPoint x="542" y="450" as="targetPoint" />
          </mxGeometry>
        </mxCell>
        <mxCell id="IKRgzNN5C5VSo4SwlW1B-111" value="" style="endArrow=classicThin;html=1;rounded=0;fontFamily=Times New Roman;fontSize=14;fontColor=#000000;exitX=0.75;exitY=1;exitDx=0;exitDy=0;entryX=0.5;entryY=0;entryDx=0;entryDy=0;endFill=1;" edge="1" parent="IKRgzNN5C5VSo4SwlW1B-1" source="IKRgzNN5C5VSo4SwlW1B-105" target="IKRgzNN5C5VSo4SwlW1B-106">
          <mxGeometry width="50" height="50" relative="1" as="geometry">
            <mxPoint x="609.5" y="440" as="sourcePoint" />
            <mxPoint x="552" y="460" as="targetPoint" />
          </mxGeometry>
        </mxCell>
        <mxCell id="IKRgzNN5C5VSo4SwlW1B-112" value="" style="endArrow=classicThin;html=1;rounded=0;fontFamily=Times New Roman;fontSize=14;fontColor=#000000;exitX=0.5;exitY=1;exitDx=0;exitDy=0;entryX=0.5;entryY=0;entryDx=0;entryDy=0;endFill=1;" edge="1" parent="IKRgzNN5C5VSo4SwlW1B-1" source="IKRgzNN5C5VSo4SwlW1B-104" target="IKRgzNN5C5VSo4SwlW1B-106">
          <mxGeometry width="50" height="50" relative="1" as="geometry">
            <mxPoint x="619.5" y="450" as="sourcePoint" />
            <mxPoint x="562" y="470" as="targetPoint" />
          </mxGeometry>
        </mxCell>
        <mxCell id="IKRgzNN5C5VSo4SwlW1B-113" value="&lt;b&gt;&lt;font style=&quot;font-size: 18px&quot;&gt;a)&lt;/font&gt;&lt;/b&gt;" style="text;html=1;strokeColor=none;fillColor=none;align=center;verticalAlign=middle;whiteSpace=wrap;rounded=0;dashed=1;fontFamily=Times New Roman;fontSize=14;fontColor=#000000;" vertex="1" parent="IKRgzNN5C5VSo4SwlW1B-1">
          <mxGeometry x="157" y="670" width="116.5" height="30" as="geometry" />
        </mxCell>
        <mxCell id="IKRgzNN5C5VSo4SwlW1B-114" value="&lt;b&gt;&lt;font style=&quot;font-size: 18px&quot;&gt;b)&lt;/font&gt;&lt;/b&gt;" style="text;html=1;strokeColor=none;fillColor=none;align=center;verticalAlign=middle;whiteSpace=wrap;rounded=0;dashed=1;fontFamily=Times New Roman;fontSize=14;fontColor=#000000;" vertex="1" parent="IKRgzNN5C5VSo4SwlW1B-1">
          <mxGeometry x="527" y="670" width="116.5" height="30" as="geometry" />
        </mxCell>
      </root>
    </mxGraphModel>
  </diagram>
  <diagram id="8c9cdEPemhr9XCd97F5b" name="Page-3">
    <mxGraphModel dx="2206" dy="873" grid="1" gridSize="10" guides="1" tooltips="1" connect="1" arrows="1" fold="1" page="1" pageScale="1" pageWidth="827" pageHeight="1169" math="0" shadow="0">
      <root>
        <mxCell id="HkwEqzNhk-XufF3T7GK--0" />
        <mxCell id="HkwEqzNhk-XufF3T7GK--1" parent="HkwEqzNhk-XufF3T7GK--0" />
        <mxCell id="HkwEqzNhk-XufF3T7GK--2" value="" style="group" vertex="1" connectable="0" parent="HkwEqzNhk-XufF3T7GK--1">
          <mxGeometry x="30" y="107.5" width="330" height="145" as="geometry" />
        </mxCell>
        <mxCell id="HkwEqzNhk-XufF3T7GK--3" value="" style="group" vertex="1" connectable="0" parent="HkwEqzNhk-XufF3T7GK--2">
          <mxGeometry x="190.51546391752578" width="51.03092783505154" height="60.41666666666667" as="geometry" />
        </mxCell>
        <mxCell id="HkwEqzNhk-XufF3T7GK--4" value="&lt;b style=&quot;color: rgb(0 , 0 , 0) ; font-family: &amp;#34;times new roman&amp;#34;&quot;&gt;4&lt;/b&gt;" style="ellipse;whiteSpace=wrap;html=1;aspect=fixed;fontSize=18;fontColor=#004C99;strokeColor=default;fillColor=#FFFFFF;" vertex="1" parent="HkwEqzNhk-XufF3T7GK--3">
          <mxGeometry width="51.03092783505154" height="51.03092783505154" as="geometry" />
        </mxCell>
        <mxCell id="HkwEqzNhk-XufF3T7GK--5" value="" style="group" vertex="1" connectable="0" parent="HkwEqzNhk-XufF3T7GK--2">
          <mxGeometry x="278.96907216494844" y="44.30555555555556" width="51.03092783505154" height="60.41666666666667" as="geometry" />
        </mxCell>
        <mxCell id="HkwEqzNhk-XufF3T7GK--6" value="&lt;font color=&quot;#000000&quot; face=&quot;Times New Roman&quot;&gt;&lt;b&gt;6&lt;/b&gt;&lt;/font&gt;" style="ellipse;whiteSpace=wrap;html=1;aspect=fixed;fontSize=18;fontColor=#004C99;strokeColor=default;fillColor=#FFFFFF;" vertex="1" parent="HkwEqzNhk-XufF3T7GK--5">
          <mxGeometry width="51.03092783505154" height="51.03092783505154" as="geometry" />
        </mxCell>
        <mxCell id="HkwEqzNhk-XufF3T7GK--7" value="&lt;b style=&quot;color: rgb(0 , 0 , 0) ; font-family: &amp;#34;times new roman&amp;#34;&quot;&gt;5&lt;/b&gt;" style="ellipse;whiteSpace=wrap;html=1;aspect=fixed;fontSize=18;fontColor=#004C99;strokeColor=default;fillColor=#FFFFFF;" vertex="1" parent="HkwEqzNhk-XufF3T7GK--2">
          <mxGeometry x="183.71134020618558" y="84.58333333333333" width="51.03092783505154" height="51.03092783505154" as="geometry" />
        </mxCell>
        <mxCell id="HkwEqzNhk-XufF3T7GK--8" value="&lt;font face=&quot;Times New Roman&quot; color=&quot;#000000&quot;&gt;&lt;b&gt;1&lt;/b&gt;&lt;/font&gt;" style="ellipse;whiteSpace=wrap;html=1;aspect=fixed;fontSize=18;fontColor=#004C99;strokeColor=default;fillColor=#FFFFFF;" vertex="1" parent="HkwEqzNhk-XufF3T7GK--2">
          <mxGeometry y="44.30555555555556" width="51.03092783505154" height="51.03092783505154" as="geometry" />
        </mxCell>
        <mxCell id="HkwEqzNhk-XufF3T7GK--9" value="" style="edgeStyle=orthogonalEdgeStyle;rounded=0;orthogonalLoop=1;jettySize=auto;html=1;fontFamily=Times New Roman;entryX=0;entryY=0.5;entryDx=0;entryDy=0;" edge="1" parent="HkwEqzNhk-XufF3T7GK--2" source="HkwEqzNhk-XufF3T7GK--11" target="HkwEqzNhk-XufF3T7GK--4">
          <mxGeometry relative="1" as="geometry">
            <mxPoint x="183.71134020618558" y="20.13888888888889" as="targetPoint" />
          </mxGeometry>
        </mxCell>
        <mxCell id="HkwEqzNhk-XufF3T7GK--10" value="4" style="edgeLabel;html=1;align=center;verticalAlign=middle;resizable=0;points=[];fontSize=17;fontFamily=Times New Roman;fontColor=#000000;" vertex="1" connectable="0" parent="HkwEqzNhk-XufF3T7GK--9">
          <mxGeometry x="-0.1487" y="-1" relative="1" as="geometry">
            <mxPoint as="offset" />
          </mxGeometry>
        </mxCell>
        <mxCell id="HkwEqzNhk-XufF3T7GK--11" value="&lt;b style=&quot;color: rgb(0 , 0 , 0) ; font-family: &amp;#34;times new roman&amp;#34;&quot;&gt;2&lt;/b&gt;" style="ellipse;whiteSpace=wrap;html=1;aspect=fixed;fontSize=18;fontColor=#004C99;strokeColor=default;fillColor=#FFFFFF;" vertex="1" parent="HkwEqzNhk-XufF3T7GK--2">
          <mxGeometry x="84.37113402061856" width="51.03092783505154" height="51.03092783505154" as="geometry" />
        </mxCell>
        <mxCell id="HkwEqzNhk-XufF3T7GK--12" value="" style="edgeStyle=orthogonalEdgeStyle;rounded=0;orthogonalLoop=1;jettySize=auto;html=1;fontFamily=Times New Roman;" edge="1" parent="HkwEqzNhk-XufF3T7GK--2" source="HkwEqzNhk-XufF3T7GK--14" target="HkwEqzNhk-XufF3T7GK--7">
          <mxGeometry relative="1" as="geometry" />
        </mxCell>
        <mxCell id="HkwEqzNhk-XufF3T7GK--13" value="2" style="edgeLabel;html=1;align=center;verticalAlign=middle;resizable=0;points=[];fontSize=17;fontFamily=Times New Roman;fontColor=#000000;" vertex="1" connectable="0" parent="HkwEqzNhk-XufF3T7GK--12">
          <mxGeometry x="0.1711" y="3" relative="1" as="geometry">
            <mxPoint x="-4" y="3" as="offset" />
          </mxGeometry>
        </mxCell>
        <mxCell id="HkwEqzNhk-XufF3T7GK--14" value="&lt;b style=&quot;color: rgb(0 , 0 , 0) ; font-family: &amp;#34;times new roman&amp;#34;&quot;&gt;3&lt;/b&gt;" style="ellipse;whiteSpace=wrap;html=1;aspect=fixed;fontSize=18;fontColor=#004C99;strokeColor=default;fillColor=#FFFFFF;" vertex="1" parent="HkwEqzNhk-XufF3T7GK--2">
          <mxGeometry x="84.37113402061856" y="84.58333333333333" width="51.03092783505154" height="51.03092783505154" as="geometry" />
        </mxCell>
        <mxCell id="HkwEqzNhk-XufF3T7GK--15" value="" style="endArrow=classic;html=1;rounded=0;fontSize=12;fontColor=#004C99;strokeColor=#000000;strokeWidth=1;exitX=1;exitY=0.5;exitDx=0;exitDy=0;entryX=0;entryY=0.5;entryDx=0;entryDy=0;" edge="1" parent="HkwEqzNhk-XufF3T7GK--2" source="HkwEqzNhk-XufF3T7GK--4" target="HkwEqzNhk-XufF3T7GK--6">
          <mxGeometry width="50" height="50" relative="1" as="geometry">
            <mxPoint x="-176.90721649484536" y="52.361111111111114" as="sourcePoint" />
            <mxPoint x="-129.27835051546393" y="-28.194444444444443" as="targetPoint" />
          </mxGeometry>
        </mxCell>
        <mxCell id="HkwEqzNhk-XufF3T7GK--16" value="2" style="edgeLabel;html=1;align=center;verticalAlign=middle;resizable=0;points=[];fontSize=17;fontFamily=Times New Roman;fontColor=#000000;" vertex="1" connectable="0" parent="HkwEqzNhk-XufF3T7GK--15">
          <mxGeometry x="-0.0942" y="1" relative="1" as="geometry">
            <mxPoint as="offset" />
          </mxGeometry>
        </mxCell>
        <mxCell id="HkwEqzNhk-XufF3T7GK--17" value="" style="endArrow=classic;html=1;rounded=0;fontSize=12;fontColor=#004C99;strokeColor=#000000;strokeWidth=1;exitX=1;exitY=0.5;exitDx=0;exitDy=0;entryX=0;entryY=0.5;entryDx=0;entryDy=0;" edge="1" parent="HkwEqzNhk-XufF3T7GK--2" source="HkwEqzNhk-XufF3T7GK--8" target="HkwEqzNhk-XufF3T7GK--11">
          <mxGeometry width="50" height="50" relative="1" as="geometry">
            <mxPoint x="6.123711340208197" y="82.56944444444446" as="sourcePoint" />
            <mxPoint x="23.134020618557166" y="82.56944444444446" as="targetPoint" />
          </mxGeometry>
        </mxCell>
        <mxCell id="HkwEqzNhk-XufF3T7GK--18" value="2" style="edgeLabel;html=1;align=center;verticalAlign=middle;resizable=0;points=[];fontSize=17;fontFamily=Times New Roman;fontColor=#000000;" vertex="1" connectable="0" parent="HkwEqzNhk-XufF3T7GK--17">
          <mxGeometry x="0.1335" relative="1" as="geometry">
            <mxPoint as="offset" />
          </mxGeometry>
        </mxCell>
        <mxCell id="HkwEqzNhk-XufF3T7GK--19" value="" style="endArrow=classic;html=1;rounded=0;fontSize=12;fontColor=#004C99;strokeColor=#000000;strokeWidth=1;exitX=1;exitY=0.5;exitDx=0;exitDy=0;entryX=0;entryY=0.5;entryDx=0;entryDy=0;" edge="1" parent="HkwEqzNhk-XufF3T7GK--2" source="HkwEqzNhk-XufF3T7GK--8" target="HkwEqzNhk-XufF3T7GK--14">
          <mxGeometry width="50" height="50" relative="1" as="geometry">
            <mxPoint x="12.927835051548403" y="90.625" as="sourcePoint" />
            <mxPoint x="29.938144329897373" y="90.625" as="targetPoint" />
          </mxGeometry>
        </mxCell>
        <mxCell id="HkwEqzNhk-XufF3T7GK--20" value="1" style="edgeLabel;html=1;align=center;verticalAlign=middle;resizable=0;points=[];fontSize=17;fontFamily=Times New Roman;fontColor=#000000;" vertex="1" connectable="0" parent="HkwEqzNhk-XufF3T7GK--19">
          <mxGeometry x="0.2465" y="2" relative="1" as="geometry">
            <mxPoint x="-3" y="-4" as="offset" />
          </mxGeometry>
        </mxCell>
        <mxCell id="HkwEqzNhk-XufF3T7GK--21" value="" style="endArrow=classic;html=1;rounded=0;fontSize=12;fontColor=#004C99;strokeColor=#000000;strokeWidth=1;exitX=1;exitY=0.5;exitDx=0;exitDy=0;entryX=0;entryY=0.5;entryDx=0;entryDy=0;" edge="1" parent="HkwEqzNhk-XufF3T7GK--2" source="HkwEqzNhk-XufF3T7GK--7" target="HkwEqzNhk-XufF3T7GK--6">
          <mxGeometry width="50" height="50" relative="1" as="geometry">
            <mxPoint x="248.35051546391648" y="38.263888888888886" as="sourcePoint" />
            <mxPoint x="292.5773195876278" y="66.45833333333333" as="targetPoint" />
          </mxGeometry>
        </mxCell>
        <mxCell id="HkwEqzNhk-XufF3T7GK--22" value="1" style="edgeLabel;html=1;align=center;verticalAlign=middle;resizable=0;points=[];fontSize=17;fontFamily=Times New Roman;fontColor=#000000;" vertex="1" connectable="0" parent="HkwEqzNhk-XufF3T7GK--21">
          <mxGeometry x="-0.1374" relative="1" as="geometry">
            <mxPoint x="6" y="-3" as="offset" />
          </mxGeometry>
        </mxCell>
        <mxCell id="HkwEqzNhk-XufF3T7GK--23" value="" style="shape=table;html=1;whiteSpace=wrap;startSize=0;container=1;collapsible=0;childLayout=tableLayout;fontFamily=Times New Roman;fontSize=17;fontColor=#000000;" vertex="1" parent="HkwEqzNhk-XufF3T7GK--1">
          <mxGeometry x="440" y="40" width="180" height="120" as="geometry" />
        </mxCell>
        <mxCell id="HkwEqzNhk-XufF3T7GK--24" value="" style="shape=tableRow;horizontal=0;startSize=0;swimlaneHead=0;swimlaneBody=0;top=0;left=0;bottom=0;right=0;collapsible=0;dropTarget=0;fillColor=none;points=[[0,0.5],[1,0.5]];portConstraint=eastwest;fontFamily=Times New Roman;fontSize=17;fontColor=#000000;" vertex="1" parent="HkwEqzNhk-XufF3T7GK--23">
          <mxGeometry width="180" height="40" as="geometry" />
        </mxCell>
        <mxCell id="HkwEqzNhk-XufF3T7GK--25" value="" style="shape=partialRectangle;html=1;whiteSpace=wrap;connectable=0;fillColor=none;top=0;left=0;bottom=0;right=0;overflow=hidden;fontFamily=Times New Roman;fontSize=17;fontColor=#000000;" vertex="1" parent="HkwEqzNhk-XufF3T7GK--24">
          <mxGeometry width="60" height="40" as="geometry">
            <mxRectangle width="60" height="40" as="alternateBounds" />
          </mxGeometry>
        </mxCell>
        <mxCell id="HkwEqzNhk-XufF3T7GK--26" value="" style="shape=partialRectangle;html=1;whiteSpace=wrap;connectable=0;fillColor=none;top=0;left=0;bottom=0;right=0;overflow=hidden;fontFamily=Times New Roman;fontSize=17;fontColor=#000000;" vertex="1" parent="HkwEqzNhk-XufF3T7GK--24">
          <mxGeometry x="60" width="60" height="40" as="geometry">
            <mxRectangle width="60" height="40" as="alternateBounds" />
          </mxGeometry>
        </mxCell>
        <mxCell id="HkwEqzNhk-XufF3T7GK--27" value="" style="shape=partialRectangle;html=1;whiteSpace=wrap;connectable=0;fillColor=none;top=0;left=0;bottom=0;right=0;overflow=hidden;fontFamily=Times New Roman;fontSize=17;fontColor=#000000;" vertex="1" parent="HkwEqzNhk-XufF3T7GK--24">
          <mxGeometry x="120" width="60" height="40" as="geometry">
            <mxRectangle width="60" height="40" as="alternateBounds" />
          </mxGeometry>
        </mxCell>
        <mxCell id="HkwEqzNhk-XufF3T7GK--28" value="" style="shape=tableRow;horizontal=0;startSize=0;swimlaneHead=0;swimlaneBody=0;top=0;left=0;bottom=0;right=0;collapsible=0;dropTarget=0;fillColor=none;points=[[0,0.5],[1,0.5]];portConstraint=eastwest;fontFamily=Times New Roman;fontSize=17;fontColor=#000000;" vertex="1" parent="HkwEqzNhk-XufF3T7GK--23">
          <mxGeometry y="40" width="180" height="40" as="geometry" />
        </mxCell>
        <mxCell id="HkwEqzNhk-XufF3T7GK--29" value="&lt;b&gt;n&lt;sub&gt;1&lt;/sub&gt;&lt;/b&gt;" style="shape=partialRectangle;html=1;whiteSpace=wrap;connectable=0;fillColor=none;top=0;left=0;bottom=0;right=0;overflow=hidden;fontFamily=Times New Roman;fontSize=17;fontColor=#000000;" vertex="1" parent="HkwEqzNhk-XufF3T7GK--28">
          <mxGeometry width="60" height="40" as="geometry">
            <mxRectangle width="60" height="40" as="alternateBounds" />
          </mxGeometry>
        </mxCell>
        <mxCell id="HkwEqzNhk-XufF3T7GK--30" value="" style="shape=partialRectangle;html=1;whiteSpace=wrap;connectable=0;fillColor=none;top=0;left=0;bottom=0;right=0;overflow=hidden;fontFamily=Times New Roman;fontSize=17;fontColor=#000000;" vertex="1" parent="HkwEqzNhk-XufF3T7GK--28">
          <mxGeometry x="60" width="60" height="40" as="geometry">
            <mxRectangle width="60" height="40" as="alternateBounds" />
          </mxGeometry>
        </mxCell>
        <mxCell id="HkwEqzNhk-XufF3T7GK--31" value="" style="shape=partialRectangle;html=1;whiteSpace=wrap;connectable=0;fillColor=none;top=0;left=0;bottom=0;right=0;overflow=hidden;fontFamily=Times New Roman;fontSize=17;fontColor=#000000;" vertex="1" parent="HkwEqzNhk-XufF3T7GK--28">
          <mxGeometry x="120" width="60" height="40" as="geometry">
            <mxRectangle width="60" height="40" as="alternateBounds" />
          </mxGeometry>
        </mxCell>
        <mxCell id="HkwEqzNhk-XufF3T7GK--32" value="" style="shape=tableRow;horizontal=0;startSize=0;swimlaneHead=0;swimlaneBody=0;top=0;left=0;bottom=0;right=0;collapsible=0;dropTarget=0;fillColor=none;points=[[0,0.5],[1,0.5]];portConstraint=eastwest;fontFamily=Times New Roman;fontSize=17;fontColor=#000000;" vertex="1" parent="HkwEqzNhk-XufF3T7GK--23">
          <mxGeometry y="80" width="180" height="40" as="geometry" />
        </mxCell>
        <mxCell id="HkwEqzNhk-XufF3T7GK--33" value="&lt;b&gt;n&lt;sub&gt;2&lt;/sub&gt;&lt;/b&gt;" style="shape=partialRectangle;html=1;whiteSpace=wrap;connectable=0;fillColor=none;top=0;left=0;bottom=0;right=0;overflow=hidden;fontFamily=Times New Roman;fontSize=17;fontColor=#000000;" vertex="1" parent="HkwEqzNhk-XufF3T7GK--32">
          <mxGeometry width="60" height="40" as="geometry">
            <mxRectangle width="60" height="40" as="alternateBounds" />
          </mxGeometry>
        </mxCell>
        <mxCell id="HkwEqzNhk-XufF3T7GK--34" value="" style="shape=partialRectangle;html=1;whiteSpace=wrap;connectable=0;fillColor=none;top=0;left=0;bottom=0;right=0;overflow=hidden;fontFamily=Times New Roman;fontSize=17;fontColor=#000000;" vertex="1" parent="HkwEqzNhk-XufF3T7GK--32">
          <mxGeometry x="60" width="60" height="40" as="geometry">
            <mxRectangle width="60" height="40" as="alternateBounds" />
          </mxGeometry>
        </mxCell>
        <mxCell id="HkwEqzNhk-XufF3T7GK--35" value="" style="shape=partialRectangle;html=1;whiteSpace=wrap;connectable=0;fillColor=none;top=0;left=0;bottom=0;right=0;overflow=hidden;pointerEvents=1;fontFamily=Times New Roman;fontSize=17;fontColor=#000000;" vertex="1" parent="HkwEqzNhk-XufF3T7GK--32">
          <mxGeometry x="120" width="60" height="40" as="geometry">
            <mxRectangle width="60" height="40" as="alternateBounds" />
          </mxGeometry>
        </mxCell>
        <mxCell id="HkwEqzNhk-XufF3T7GK--36" value="" style="shape=table;html=1;whiteSpace=wrap;startSize=0;container=1;collapsible=0;childLayout=tableLayout;fontFamily=Times New Roman;fontSize=17;fontColor=#000000;" vertex="1" parent="HkwEqzNhk-XufF3T7GK--1">
          <mxGeometry x="440" y="160" width="180" height="120" as="geometry" />
        </mxCell>
        <mxCell id="HkwEqzNhk-XufF3T7GK--37" value="" style="shape=tableRow;horizontal=0;startSize=0;swimlaneHead=0;swimlaneBody=0;top=0;left=0;bottom=0;right=0;collapsible=0;dropTarget=0;fillColor=none;points=[[0,0.5],[1,0.5]];portConstraint=eastwest;fontFamily=Times New Roman;fontSize=17;fontColor=#000000;" vertex="1" parent="HkwEqzNhk-XufF3T7GK--36">
          <mxGeometry width="180" height="40" as="geometry" />
        </mxCell>
        <mxCell id="HkwEqzNhk-XufF3T7GK--38" value="&lt;b&gt;n&lt;sub&gt;3&lt;/sub&gt;&lt;/b&gt;" style="shape=partialRectangle;html=1;whiteSpace=wrap;connectable=0;fillColor=none;top=0;left=0;bottom=0;right=0;overflow=hidden;fontFamily=Times New Roman;fontSize=17;fontColor=#000000;" vertex="1" parent="HkwEqzNhk-XufF3T7GK--37">
          <mxGeometry width="60" height="40" as="geometry">
            <mxRectangle width="60" height="40" as="alternateBounds" />
          </mxGeometry>
        </mxCell>
        <mxCell id="HkwEqzNhk-XufF3T7GK--39" value="" style="shape=partialRectangle;html=1;whiteSpace=wrap;connectable=0;fillColor=none;top=0;left=0;bottom=0;right=0;overflow=hidden;fontFamily=Times New Roman;fontSize=17;fontColor=#000000;" vertex="1" parent="HkwEqzNhk-XufF3T7GK--37">
          <mxGeometry x="60" width="60" height="40" as="geometry">
            <mxRectangle width="60" height="40" as="alternateBounds" />
          </mxGeometry>
        </mxCell>
        <mxCell id="HkwEqzNhk-XufF3T7GK--40" value="" style="shape=partialRectangle;html=1;whiteSpace=wrap;connectable=0;fillColor=none;top=0;left=0;bottom=0;right=0;overflow=hidden;fontFamily=Times New Roman;fontSize=17;fontColor=#000000;" vertex="1" parent="HkwEqzNhk-XufF3T7GK--37">
          <mxGeometry x="120" width="60" height="40" as="geometry">
            <mxRectangle width="60" height="40" as="alternateBounds" />
          </mxGeometry>
        </mxCell>
        <mxCell id="HkwEqzNhk-XufF3T7GK--41" value="" style="shape=tableRow;horizontal=0;startSize=0;swimlaneHead=0;swimlaneBody=0;top=0;left=0;bottom=0;right=0;collapsible=0;dropTarget=0;fillColor=none;points=[[0,0.5],[1,0.5]];portConstraint=eastwest;fontFamily=Times New Roman;fontSize=17;fontColor=#000000;" vertex="1" parent="HkwEqzNhk-XufF3T7GK--36">
          <mxGeometry y="40" width="180" height="40" as="geometry" />
        </mxCell>
        <mxCell id="HkwEqzNhk-XufF3T7GK--42" value="&lt;b&gt;n&lt;sub&gt;4&lt;/sub&gt;&lt;/b&gt;" style="shape=partialRectangle;html=1;whiteSpace=wrap;connectable=0;fillColor=none;top=0;left=0;bottom=0;right=0;overflow=hidden;fontFamily=Times New Roman;fontSize=17;fontColor=#000000;" vertex="1" parent="HkwEqzNhk-XufF3T7GK--41">
          <mxGeometry width="60" height="40" as="geometry">
            <mxRectangle width="60" height="40" as="alternateBounds" />
          </mxGeometry>
        </mxCell>
        <mxCell id="HkwEqzNhk-XufF3T7GK--43" value="" style="shape=partialRectangle;html=1;whiteSpace=wrap;connectable=0;fillColor=none;top=0;left=0;bottom=0;right=0;overflow=hidden;fontFamily=Times New Roman;fontSize=17;fontColor=#000000;" vertex="1" parent="HkwEqzNhk-XufF3T7GK--41">
          <mxGeometry x="60" width="60" height="40" as="geometry">
            <mxRectangle width="60" height="40" as="alternateBounds" />
          </mxGeometry>
        </mxCell>
        <mxCell id="HkwEqzNhk-XufF3T7GK--44" value="" style="shape=partialRectangle;html=1;whiteSpace=wrap;connectable=0;fillColor=none;top=0;left=0;bottom=0;right=0;overflow=hidden;fontFamily=Times New Roman;fontSize=17;fontColor=#000000;" vertex="1" parent="HkwEqzNhk-XufF3T7GK--41">
          <mxGeometry x="120" width="60" height="40" as="geometry">
            <mxRectangle width="60" height="40" as="alternateBounds" />
          </mxGeometry>
        </mxCell>
        <mxCell id="HkwEqzNhk-XufF3T7GK--45" value="" style="shape=tableRow;horizontal=0;startSize=0;swimlaneHead=0;swimlaneBody=0;top=0;left=0;bottom=0;right=0;collapsible=0;dropTarget=0;fillColor=none;points=[[0,0.5],[1,0.5]];portConstraint=eastwest;fontFamily=Times New Roman;fontSize=17;fontColor=#000000;" vertex="1" parent="HkwEqzNhk-XufF3T7GK--36">
          <mxGeometry y="80" width="180" height="40" as="geometry" />
        </mxCell>
        <mxCell id="HkwEqzNhk-XufF3T7GK--46" value="&lt;b&gt;n&lt;sub&gt;5&lt;/sub&gt;&lt;/b&gt;" style="shape=partialRectangle;html=1;whiteSpace=wrap;connectable=0;fillColor=none;top=0;left=0;bottom=0;right=0;overflow=hidden;fontFamily=Times New Roman;fontSize=17;fontColor=#000000;" vertex="1" parent="HkwEqzNhk-XufF3T7GK--45">
          <mxGeometry width="60" height="40" as="geometry">
            <mxRectangle width="60" height="40" as="alternateBounds" />
          </mxGeometry>
        </mxCell>
        <mxCell id="HkwEqzNhk-XufF3T7GK--47" value="" style="shape=partialRectangle;html=1;whiteSpace=wrap;connectable=0;fillColor=none;top=0;left=0;bottom=0;right=0;overflow=hidden;fontFamily=Times New Roman;fontSize=17;fontColor=#000000;" vertex="1" parent="HkwEqzNhk-XufF3T7GK--45">
          <mxGeometry x="60" width="60" height="40" as="geometry">
            <mxRectangle width="60" height="40" as="alternateBounds" />
          </mxGeometry>
        </mxCell>
        <mxCell id="HkwEqzNhk-XufF3T7GK--48" value="" style="shape=partialRectangle;html=1;whiteSpace=wrap;connectable=0;fillColor=none;top=0;left=0;bottom=0;right=0;overflow=hidden;pointerEvents=1;fontFamily=Times New Roman;fontSize=17;fontColor=#000000;" vertex="1" parent="HkwEqzNhk-XufF3T7GK--45">
          <mxGeometry x="120" width="60" height="40" as="geometry">
            <mxRectangle width="60" height="40" as="alternateBounds" />
          </mxGeometry>
        </mxCell>
        <mxCell id="HkwEqzNhk-XufF3T7GK--49" value="" style="shape=tableRow;horizontal=0;startSize=0;swimlaneHead=0;swimlaneBody=0;top=0;left=0;bottom=0;right=0;collapsible=0;dropTarget=0;fillColor=none;points=[[0,0.5],[1,0.5]];portConstraint=eastwest;fontFamily=Times New Roman;fontSize=17;fontColor=#000000;" vertex="1" parent="HkwEqzNhk-XufF3T7GK--1">
          <mxGeometry x="440" y="280" width="180" height="40" as="geometry" />
        </mxCell>
        <mxCell id="HkwEqzNhk-XufF3T7GK--50" value="" style="shape=partialRectangle;html=1;whiteSpace=wrap;connectable=0;fillColor=none;top=0;left=0;bottom=0;right=0;overflow=hidden;fontFamily=Times New Roman;fontSize=17;fontColor=#000000;" vertex="1" parent="HkwEqzNhk-XufF3T7GK--49">
          <mxGeometry x="60" width="60" height="40" as="geometry">
            <mxRectangle width="60" height="40" as="alternateBounds" />
          </mxGeometry>
        </mxCell>
        <mxCell id="HkwEqzNhk-XufF3T7GK--51" value="" style="shape=partialRectangle;html=1;whiteSpace=wrap;connectable=0;fillColor=none;top=0;left=0;bottom=0;right=0;overflow=hidden;pointerEvents=1;fontFamily=Times New Roman;fontSize=17;fontColor=#000000;" vertex="1" parent="HkwEqzNhk-XufF3T7GK--49">
          <mxGeometry x="120" width="60" height="40" as="geometry">
            <mxRectangle width="60" height="40" as="alternateBounds" />
          </mxGeometry>
        </mxCell>
        <mxCell id="HkwEqzNhk-XufF3T7GK--52" value="" style="shape=table;html=1;whiteSpace=wrap;startSize=0;container=1;collapsible=0;childLayout=tableLayout;fontFamily=Times New Roman;fontSize=17;fontColor=#000000;" vertex="1" parent="HkwEqzNhk-XufF3T7GK--1">
          <mxGeometry x="440" y="280" width="180" height="40" as="geometry" />
        </mxCell>
        <mxCell id="HkwEqzNhk-XufF3T7GK--53" value="" style="shape=tableRow;horizontal=0;startSize=0;swimlaneHead=0;swimlaneBody=0;top=0;left=0;bottom=0;right=0;collapsible=0;dropTarget=0;fillColor=none;points=[[0,0.5],[1,0.5]];portConstraint=eastwest;fontFamily=Times New Roman;fontSize=17;fontColor=#000000;" vertex="1" parent="HkwEqzNhk-XufF3T7GK--52">
          <mxGeometry width="180" height="40" as="geometry" />
        </mxCell>
        <mxCell id="HkwEqzNhk-XufF3T7GK--54" value="&lt;b&gt;n&lt;sub&gt;6&lt;/sub&gt;&lt;/b&gt;" style="shape=partialRectangle;html=1;whiteSpace=wrap;connectable=0;fillColor=none;top=0;left=0;bottom=0;right=0;overflow=hidden;fontFamily=Times New Roman;fontSize=17;fontColor=#000000;" vertex="1" parent="HkwEqzNhk-XufF3T7GK--53">
          <mxGeometry width="60" height="40" as="geometry">
            <mxRectangle width="60" height="40" as="alternateBounds" />
          </mxGeometry>
        </mxCell>
        <mxCell id="HkwEqzNhk-XufF3T7GK--55" value="" style="shape=partialRectangle;html=1;whiteSpace=wrap;connectable=0;fillColor=none;top=0;left=0;bottom=0;right=0;overflow=hidden;fontFamily=Times New Roman;fontSize=17;fontColor=#000000;" vertex="1" parent="HkwEqzNhk-XufF3T7GK--53">
          <mxGeometry x="60" width="60" height="40" as="geometry">
            <mxRectangle width="60" height="40" as="alternateBounds" />
          </mxGeometry>
        </mxCell>
        <mxCell id="HkwEqzNhk-XufF3T7GK--56" value="" style="shape=partialRectangle;html=1;whiteSpace=wrap;connectable=0;fillColor=none;top=0;left=0;bottom=0;right=0;overflow=hidden;fontFamily=Times New Roman;fontSize=17;fontColor=#000000;" vertex="1" parent="HkwEqzNhk-XufF3T7GK--53">
          <mxGeometry x="120" width="60" height="40" as="geometry">
            <mxRectangle width="60" height="40" as="alternateBounds" />
          </mxGeometry>
        </mxCell>
        <mxCell id="HkwEqzNhk-XufF3T7GK--57" value="" style="shape=partialRectangle;html=1;whiteSpace=wrap;connectable=0;fillColor=none;top=0;left=0;bottom=0;right=0;overflow=hidden;fontFamily=Times New Roman;fontSize=17;fontColor=#000000;" vertex="1" parent="HkwEqzNhk-XufF3T7GK--1">
          <mxGeometry x="620" y="80" width="60" height="40" as="geometry">
            <mxRectangle width="60" height="40" as="alternateBounds" />
          </mxGeometry>
        </mxCell>
        <mxCell id="HkwEqzNhk-XufF3T7GK--58" value="" style="shape=table;html=1;whiteSpace=wrap;startSize=0;container=1;collapsible=0;childLayout=tableLayout;fontFamily=Times New Roman;fontSize=17;fontColor=#000000;" vertex="1" parent="HkwEqzNhk-XufF3T7GK--1">
          <mxGeometry x="500" y="280" width="180" height="40" as="geometry" />
        </mxCell>
        <mxCell id="HkwEqzNhk-XufF3T7GK--59" value="" style="shape=tableRow;horizontal=0;startSize=0;swimlaneHead=0;swimlaneBody=0;top=0;left=0;bottom=0;right=0;collapsible=0;dropTarget=0;fillColor=none;points=[[0,0.5],[1,0.5]];portConstraint=eastwest;fontFamily=Times New Roman;fontSize=17;fontColor=#000000;" vertex="1" parent="HkwEqzNhk-XufF3T7GK--58">
          <mxGeometry width="180" height="40" as="geometry" />
        </mxCell>
        <mxCell id="HkwEqzNhk-XufF3T7GK--60" value="7" style="shape=partialRectangle;html=1;whiteSpace=wrap;connectable=0;fillColor=none;top=0;left=0;bottom=0;right=0;overflow=hidden;fontFamily=Times New Roman;fontSize=17;fontColor=#000000;" vertex="1" parent="HkwEqzNhk-XufF3T7GK--59">
          <mxGeometry width="60" height="40" as="geometry">
            <mxRectangle width="60" height="40" as="alternateBounds" />
          </mxGeometry>
        </mxCell>
        <mxCell id="HkwEqzNhk-XufF3T7GK--61" value="5" style="shape=partialRectangle;html=1;whiteSpace=wrap;connectable=0;fillColor=none;top=0;left=0;bottom=0;right=0;overflow=hidden;fontFamily=Times New Roman;fontSize=17;fontColor=#000000;" vertex="1" parent="HkwEqzNhk-XufF3T7GK--59">
          <mxGeometry x="60" width="60" height="40" as="geometry">
            <mxRectangle width="60" height="40" as="alternateBounds" />
          </mxGeometry>
        </mxCell>
        <mxCell id="HkwEqzNhk-XufF3T7GK--62" value="2" style="shape=partialRectangle;html=1;whiteSpace=wrap;connectable=0;fillColor=none;top=0;left=0;bottom=0;right=0;overflow=hidden;fontFamily=Times New Roman;fontSize=17;fontColor=#000000;" vertex="1" parent="HkwEqzNhk-XufF3T7GK--59">
          <mxGeometry x="120" width="60" height="40" as="geometry">
            <mxRectangle width="60" height="40" as="alternateBounds" />
          </mxGeometry>
        </mxCell>
        <mxCell id="HkwEqzNhk-XufF3T7GK--63" value="" style="shape=table;html=1;whiteSpace=wrap;startSize=0;container=1;collapsible=0;childLayout=tableLayout;fontFamily=Times New Roman;fontSize=17;fontColor=#000000;" vertex="1" parent="HkwEqzNhk-XufF3T7GK--1">
          <mxGeometry x="500" y="240" width="180" height="40" as="geometry" />
        </mxCell>
        <mxCell id="HkwEqzNhk-XufF3T7GK--64" value="" style="shape=tableRow;horizontal=0;startSize=0;swimlaneHead=0;swimlaneBody=0;top=0;left=0;bottom=0;right=0;collapsible=0;dropTarget=0;fillColor=none;points=[[0,0.5],[1,0.5]];portConstraint=eastwest;fontFamily=Times New Roman;fontSize=17;fontColor=#000000;" vertex="1" parent="HkwEqzNhk-XufF3T7GK--63">
          <mxGeometry width="180" height="40" as="geometry" />
        </mxCell>
        <mxCell id="HkwEqzNhk-XufF3T7GK--65" value="4" style="shape=partialRectangle;html=1;whiteSpace=wrap;connectable=0;fillColor=none;top=0;left=0;bottom=0;right=0;overflow=hidden;fontFamily=Times New Roman;fontSize=17;fontColor=#000000;" vertex="1" parent="HkwEqzNhk-XufF3T7GK--64">
          <mxGeometry width="60" height="40" as="geometry">
            <mxRectangle width="60" height="40" as="alternateBounds" />
          </mxGeometry>
        </mxCell>
        <mxCell id="HkwEqzNhk-XufF3T7GK--66" value="2" style="shape=partialRectangle;html=1;whiteSpace=wrap;connectable=0;fillColor=none;top=0;left=0;bottom=0;right=0;overflow=hidden;fontFamily=Times New Roman;fontSize=17;fontColor=#000000;" vertex="1" parent="HkwEqzNhk-XufF3T7GK--64">
          <mxGeometry x="60" width="60" height="40" as="geometry">
            <mxRectangle width="60" height="40" as="alternateBounds" />
          </mxGeometry>
        </mxCell>
        <mxCell id="HkwEqzNhk-XufF3T7GK--67" value="6" style="shape=partialRectangle;html=1;whiteSpace=wrap;connectable=0;fillColor=none;top=0;left=0;bottom=0;right=0;overflow=hidden;fontFamily=Times New Roman;fontSize=17;fontColor=#000000;" vertex="1" parent="HkwEqzNhk-XufF3T7GK--64">
          <mxGeometry x="120" width="60" height="40" as="geometry">
            <mxRectangle width="60" height="40" as="alternateBounds" />
          </mxGeometry>
        </mxCell>
        <mxCell id="HkwEqzNhk-XufF3T7GK--68" value="" style="shape=table;html=1;whiteSpace=wrap;startSize=0;container=1;collapsible=0;childLayout=tableLayout;fontFamily=Times New Roman;fontSize=17;fontColor=#000000;" vertex="1" parent="HkwEqzNhk-XufF3T7GK--1">
          <mxGeometry x="500" y="200" width="180" height="40" as="geometry" />
        </mxCell>
        <mxCell id="HkwEqzNhk-XufF3T7GK--69" value="" style="shape=tableRow;horizontal=0;startSize=0;swimlaneHead=0;swimlaneBody=0;top=0;left=0;bottom=0;right=0;collapsible=0;dropTarget=0;fillColor=none;points=[[0,0.5],[1,0.5]];portConstraint=eastwest;fontFamily=Times New Roman;fontSize=17;fontColor=#000000;" vertex="1" parent="HkwEqzNhk-XufF3T7GK--68">
          <mxGeometry width="180" height="40" as="geometry" />
        </mxCell>
        <mxCell id="HkwEqzNhk-XufF3T7GK--70" value="8" style="shape=partialRectangle;html=1;whiteSpace=wrap;connectable=0;fillColor=none;top=0;left=0;bottom=0;right=0;overflow=hidden;fontFamily=Times New Roman;fontSize=17;fontColor=#000000;" vertex="1" parent="HkwEqzNhk-XufF3T7GK--69">
          <mxGeometry width="60" height="40" as="geometry">
            <mxRectangle width="60" height="40" as="alternateBounds" />
          </mxGeometry>
        </mxCell>
        <mxCell id="HkwEqzNhk-XufF3T7GK--71" value="3" style="shape=partialRectangle;html=1;whiteSpace=wrap;connectable=0;fillColor=none;top=0;left=0;bottom=0;right=0;overflow=hidden;fontFamily=Times New Roman;fontSize=17;fontColor=#000000;" vertex="1" parent="HkwEqzNhk-XufF3T7GK--69">
          <mxGeometry x="60" width="60" height="40" as="geometry">
            <mxRectangle width="60" height="40" as="alternateBounds" />
          </mxGeometry>
        </mxCell>
        <mxCell id="HkwEqzNhk-XufF3T7GK--72" value="6" style="shape=partialRectangle;html=1;whiteSpace=wrap;connectable=0;fillColor=none;top=0;left=0;bottom=0;right=0;overflow=hidden;fontFamily=Times New Roman;fontSize=17;fontColor=#000000;" vertex="1" parent="HkwEqzNhk-XufF3T7GK--69">
          <mxGeometry x="120" width="60" height="40" as="geometry">
            <mxRectangle width="60" height="40" as="alternateBounds" />
          </mxGeometry>
        </mxCell>
        <mxCell id="HkwEqzNhk-XufF3T7GK--73" value="" style="shape=table;html=1;whiteSpace=wrap;startSize=0;container=1;collapsible=0;childLayout=tableLayout;fontFamily=Times New Roman;fontSize=17;fontColor=#000000;" vertex="1" parent="HkwEqzNhk-XufF3T7GK--1">
          <mxGeometry x="500" y="160" width="180" height="40" as="geometry" />
        </mxCell>
        <mxCell id="HkwEqzNhk-XufF3T7GK--74" value="" style="shape=tableRow;horizontal=0;startSize=0;swimlaneHead=0;swimlaneBody=0;top=0;left=0;bottom=0;right=0;collapsible=0;dropTarget=0;fillColor=none;points=[[0,0.5],[1,0.5]];portConstraint=eastwest;fontFamily=Times New Roman;fontSize=17;fontColor=#000000;" vertex="1" parent="HkwEqzNhk-XufF3T7GK--73">
          <mxGeometry width="180" height="40" as="geometry" />
        </mxCell>
        <mxCell id="HkwEqzNhk-XufF3T7GK--75" value="5" style="shape=partialRectangle;html=1;whiteSpace=wrap;connectable=0;fillColor=none;top=0;left=0;bottom=0;right=0;overflow=hidden;fontFamily=Times New Roman;fontSize=17;fontColor=#000000;" vertex="1" parent="HkwEqzNhk-XufF3T7GK--74">
          <mxGeometry width="60" height="40" as="geometry">
            <mxRectangle width="60" height="40" as="alternateBounds" />
          </mxGeometry>
        </mxCell>
        <mxCell id="HkwEqzNhk-XufF3T7GK--76" value="8" style="shape=partialRectangle;html=1;whiteSpace=wrap;connectable=0;fillColor=none;top=0;left=0;bottom=0;right=0;overflow=hidden;fontFamily=Times New Roman;fontSize=17;fontColor=#000000;" vertex="1" parent="HkwEqzNhk-XufF3T7GK--74">
          <mxGeometry x="60" width="60" height="40" as="geometry">
            <mxRectangle width="60" height="40" as="alternateBounds" />
          </mxGeometry>
        </mxCell>
        <mxCell id="HkwEqzNhk-XufF3T7GK--77" value="2" style="shape=partialRectangle;html=1;whiteSpace=wrap;connectable=0;fillColor=none;top=0;left=0;bottom=0;right=0;overflow=hidden;fontFamily=Times New Roman;fontSize=17;fontColor=#000000;" vertex="1" parent="HkwEqzNhk-XufF3T7GK--74">
          <mxGeometry x="120" width="60" height="40" as="geometry">
            <mxRectangle width="60" height="40" as="alternateBounds" />
          </mxGeometry>
        </mxCell>
        <mxCell id="HkwEqzNhk-XufF3T7GK--78" value="" style="shape=table;html=1;whiteSpace=wrap;startSize=0;container=1;collapsible=0;childLayout=tableLayout;fontFamily=Times New Roman;fontSize=17;fontColor=#000000;" vertex="1" parent="HkwEqzNhk-XufF3T7GK--1">
          <mxGeometry x="500" y="120" width="180" height="40" as="geometry" />
        </mxCell>
        <mxCell id="HkwEqzNhk-XufF3T7GK--79" value="" style="shape=tableRow;horizontal=0;startSize=0;swimlaneHead=0;swimlaneBody=0;top=0;left=0;bottom=0;right=0;collapsible=0;dropTarget=0;fillColor=none;points=[[0,0.5],[1,0.5]];portConstraint=eastwest;fontFamily=Times New Roman;fontSize=17;fontColor=#000000;" vertex="1" parent="HkwEqzNhk-XufF3T7GK--78">
          <mxGeometry width="180" height="40" as="geometry" />
        </mxCell>
        <mxCell id="HkwEqzNhk-XufF3T7GK--80" value="6" style="shape=partialRectangle;html=1;whiteSpace=wrap;connectable=0;fillColor=none;top=0;left=0;bottom=0;right=0;overflow=hidden;fontFamily=Times New Roman;fontSize=17;fontColor=#000000;" vertex="1" parent="HkwEqzNhk-XufF3T7GK--79">
          <mxGeometry width="60" height="40" as="geometry">
            <mxRectangle width="60" height="40" as="alternateBounds" />
          </mxGeometry>
        </mxCell>
        <mxCell id="HkwEqzNhk-XufF3T7GK--81" value="10" style="shape=partialRectangle;html=1;whiteSpace=wrap;connectable=0;fillColor=none;top=0;left=0;bottom=0;right=0;overflow=hidden;fontFamily=Times New Roman;fontSize=17;fontColor=#000000;" vertex="1" parent="HkwEqzNhk-XufF3T7GK--79">
          <mxGeometry x="60" width="60" height="40" as="geometry">
            <mxRectangle width="60" height="40" as="alternateBounds" />
          </mxGeometry>
        </mxCell>
        <mxCell id="HkwEqzNhk-XufF3T7GK--82" value="8" style="shape=partialRectangle;html=1;whiteSpace=wrap;connectable=0;fillColor=none;top=0;left=0;bottom=0;right=0;overflow=hidden;fontFamily=Times New Roman;fontSize=17;fontColor=#000000;" vertex="1" parent="HkwEqzNhk-XufF3T7GK--79">
          <mxGeometry x="120" width="60" height="40" as="geometry">
            <mxRectangle width="60" height="40" as="alternateBounds" />
          </mxGeometry>
        </mxCell>
        <mxCell id="HkwEqzNhk-XufF3T7GK--83" value="" style="shape=table;html=1;whiteSpace=wrap;startSize=0;container=1;collapsible=0;childLayout=tableLayout;fontFamily=Times New Roman;fontSize=17;fontColor=#000000;" vertex="1" parent="HkwEqzNhk-XufF3T7GK--1">
          <mxGeometry x="500" y="80" width="180" height="40" as="geometry" />
        </mxCell>
        <mxCell id="HkwEqzNhk-XufF3T7GK--84" value="" style="shape=tableRow;horizontal=0;startSize=0;swimlaneHead=0;swimlaneBody=0;top=0;left=0;bottom=0;right=0;collapsible=0;dropTarget=0;fillColor=none;points=[[0,0.5],[1,0.5]];portConstraint=eastwest;fontFamily=Times New Roman;fontSize=17;fontColor=#000000;" vertex="1" parent="HkwEqzNhk-XufF3T7GK--83">
          <mxGeometry width="180" height="40" as="geometry" />
        </mxCell>
        <mxCell id="HkwEqzNhk-XufF3T7GK--85" value="4" style="shape=partialRectangle;html=1;whiteSpace=wrap;connectable=0;fillColor=none;top=0;left=0;bottom=0;right=0;overflow=hidden;fontFamily=Times New Roman;fontSize=17;fontColor=#000000;" vertex="1" parent="HkwEqzNhk-XufF3T7GK--84">
          <mxGeometry width="60" height="40" as="geometry">
            <mxRectangle width="60" height="40" as="alternateBounds" />
          </mxGeometry>
        </mxCell>
        <mxCell id="HkwEqzNhk-XufF3T7GK--86" value="2" style="shape=partialRectangle;html=1;whiteSpace=wrap;connectable=0;fillColor=none;top=0;left=0;bottom=0;right=0;overflow=hidden;fontFamily=Times New Roman;fontSize=17;fontColor=#000000;" vertex="1" parent="HkwEqzNhk-XufF3T7GK--84">
          <mxGeometry x="60" width="60" height="40" as="geometry">
            <mxRectangle width="60" height="40" as="alternateBounds" />
          </mxGeometry>
        </mxCell>
        <mxCell id="HkwEqzNhk-XufF3T7GK--87" value="6" style="shape=partialRectangle;html=1;whiteSpace=wrap;connectable=0;fillColor=none;top=0;left=0;bottom=0;right=0;overflow=hidden;fontFamily=Times New Roman;fontSize=17;fontColor=#000000;" vertex="1" parent="HkwEqzNhk-XufF3T7GK--84">
          <mxGeometry x="120" width="60" height="40" as="geometry">
            <mxRectangle width="60" height="40" as="alternateBounds" />
          </mxGeometry>
        </mxCell>
        <mxCell id="HkwEqzNhk-XufF3T7GK--88" value="" style="shape=table;html=1;whiteSpace=wrap;startSize=0;container=1;collapsible=0;childLayout=tableLayout;fontFamily=Times New Roman;fontSize=17;fontColor=#000000;" vertex="1" parent="HkwEqzNhk-XufF3T7GK--1">
          <mxGeometry x="500" y="40" width="180" height="40" as="geometry" />
        </mxCell>
        <mxCell id="HkwEqzNhk-XufF3T7GK--89" value="" style="shape=tableRow;horizontal=0;startSize=0;swimlaneHead=0;swimlaneBody=0;top=0;left=0;bottom=0;right=0;collapsible=0;dropTarget=0;fillColor=none;points=[[0,0.5],[1,0.5]];portConstraint=eastwest;fontFamily=Times New Roman;fontSize=17;fontColor=#000000;" vertex="1" parent="HkwEqzNhk-XufF3T7GK--88">
          <mxGeometry width="180" height="40" as="geometry" />
        </mxCell>
        <mxCell id="HkwEqzNhk-XufF3T7GK--90" value="&lt;b&gt;c&lt;sub&gt;1&lt;/sub&gt;&lt;/b&gt;" style="shape=partialRectangle;html=1;whiteSpace=wrap;connectable=0;fillColor=none;top=0;left=0;bottom=0;right=0;overflow=hidden;fontFamily=Times New Roman;fontSize=17;fontColor=#000000;" vertex="1" parent="HkwEqzNhk-XufF3T7GK--89">
          <mxGeometry width="60" height="40" as="geometry">
            <mxRectangle width="60" height="40" as="alternateBounds" />
          </mxGeometry>
        </mxCell>
        <mxCell id="HkwEqzNhk-XufF3T7GK--91" value="&lt;b&gt;c&lt;sub&gt;2&lt;/sub&gt;&lt;/b&gt;" style="shape=partialRectangle;html=1;whiteSpace=wrap;connectable=0;fillColor=none;top=0;left=0;bottom=0;right=0;overflow=hidden;fontFamily=Times New Roman;fontSize=17;fontColor=#000000;" vertex="1" parent="HkwEqzNhk-XufF3T7GK--89">
          <mxGeometry x="60" width="60" height="40" as="geometry">
            <mxRectangle width="60" height="40" as="alternateBounds" />
          </mxGeometry>
        </mxCell>
        <mxCell id="HkwEqzNhk-XufF3T7GK--92" value="&lt;b&gt;c&lt;sub&gt;3&lt;/sub&gt;&lt;/b&gt;" style="shape=partialRectangle;html=1;whiteSpace=wrap;connectable=0;fillColor=none;top=0;left=0;bottom=0;right=0;overflow=hidden;fontFamily=Times New Roman;fontSize=17;fontColor=#000000;" vertex="1" parent="HkwEqzNhk-XufF3T7GK--89">
          <mxGeometry x="120" width="60" height="40" as="geometry">
            <mxRectangle width="60" height="40" as="alternateBounds" />
          </mxGeometry>
        </mxCell>
      </root>
    </mxGraphModel>
  </diagram>
</mxfile>
